<?xml version="1.0" encoding="UTF-8"?>
<svg version="1.1" xmlns="http://www.w3.org/2000/svg" width="1024" height="1024">
<path d="M0 0 C337.92 0 675.84 0 1024 0 C1024 337.92 1024 675.84 1024 1024 C686.08 1024 348.16 1024 0 1024 C0 686.08 0 348.16 0 0 Z " fill="#BBE2EF" transform="translate(0,0)"/>
<path d="M0 0 C1.73697144 0.01353516 1.73697144 0.01353516 3.5090332 0.02734375 C11.8152508 0.19596225 18.65748346 0.86395555 26.25 4.4375 C27.13123535 4.83219482 27.13123535 4.83219482 28.03027344 5.23486328 C45.96522104 13.38166339 59.0749795 26.91857358 66.25 45.4375 C66.53810547 46.46810547 66.53810547 46.46810547 66.83203125 47.51953125 C68.67359322 54.02461707 72.99246049 59.32792318 78.32946777 63.375 C84.77811142 66.94259641 93.45485627 65.67736156 100.5625 65.4375 C104.14183592 65.37256728 107.72095667 65.3369933 111.30078125 65.3125 C112.16248932 65.30391464 113.02419739 65.29532928 113.91201782 65.28648376 C124.01714934 65.28024461 133.50323982 67.22496597 142.75 71.375 C143.8534375 71.85839844 144.956875 72.34179688 146.09375 72.83984375 C149.34518543 74.48568173 152.23706291 76.39134298 155.25 78.4375 C156.3946875 79.07945312 157.539375 79.72140625 158.71875 80.3828125 C167.62936998 85.40969186 175.49422664 92.5647138 182.9296875 99.53515625 C183.56127777 100.12618637 184.19286804 100.71721649 184.84359741 101.32615662 C194.05521589 110.0114462 202.94529954 119.02715696 211.875 128 C213.69116889 129.82120028 215.50757383 131.64216519 217.32421875 133.46289062 C220.63377797 136.78053773 223.94203279 140.09947236 227.24853516 143.42016602 C228.58231782 144.75931613 229.91613469 146.0984322 231.25 147.4375 C231.7618988 147.95158417 232.27379761 148.46566833 232.8012085 148.99533081 C234.86556799 151.06499825 236.9487141 153.10516014 239.0625 155.125 C241.25 157.4375 241.25 157.4375 241.25 159.4375 C241.78625 159.64375 242.3225 159.85 242.875 160.0625 C246.16978009 161.97000426 248.84363628 164.48569384 251.25 167.4375 C251.25 168.0975 251.25 168.7575 251.25 169.4375 C251.91 169.4375 252.57 169.4375 253.25 169.4375 C254.68432617 170.89306641 254.68432617 170.89306641 256.35546875 172.9140625 C260.21167319 177.44597348 264.33279448 181.63091771 268.5625 185.8125 C269.33505127 186.58126465 270.10760254 187.3500293 270.90356445 188.14208984 C273.34994182 190.57635765 275.7995414 193.00734106 278.25 195.4375 C281.48213688 198.64286178 284.71082535 201.85164073 287.9375 205.0625 C289.03155151 206.144104 289.03155151 206.144104 290.14770508 207.24755859 C294.16559166 211.24642065 297.99067436 215.33462083 301.65087891 219.66455078 C303.80592964 222.05386046 306.19875795 224.07520929 308.671875 226.125 C310.6683513 227.78543573 312.51999342 229.49989263 314.25 231.4375 C314.25 232.0975 314.25 232.7575 314.25 233.4375 C314.91 233.4375 315.57 233.4375 316.25 233.4375 C316.25 234.0975 316.25 234.7575 316.25 235.4375 C316.83136719 235.69273437 317.41273438 235.94796875 318.01171875 236.2109375 C324.20937516 239.60720995 328.83758185 246.06205167 333.39453125 251.359375 C336.84131963 255.21977798 340.56279407 258.80892455 344.25 262.4375 C345.91745002 264.10338295 347.58402104 265.77014591 349.25 267.4375 C350.02613647 268.21363647 350.80227295 268.98977295 351.60192871 269.78942871 C396.25 314.4375 396.25 314.4375 398.89421082 317.08369446 C401.36263729 319.55004244 403.84618124 322.00043946 406.33203125 324.44921875 C407.75477487 325.858178 409.17750427 327.26715198 410.59936523 328.67700195 C411.58199785 329.64946884 412.56640133 330.62014932 413.55249023 331.58911133 C414.9836325 332.99612126 416.40795058 334.41006198 417.83203125 335.82421875 C418.67999268 336.66170654 419.5279541 337.49919434 420.40161133 338.36206055 C422.25 340.4375 422.25 340.4375 422.25 342.4375 C423.24 342.7675 424.23 343.0975 425.25 343.4375 C426.4381697 344.56235692 427.6189755 345.6965442 428.75146484 346.87744141 C430.47197257 348.66858582 432.24270729 350.40145275 434.01953125 352.13671875 C435.36727642 353.46605569 436.71493096 354.79548452 438.0625 356.125 C438.75537109 356.80111328 439.44824219 357.47722656 440.16210938 358.17382812 C440.81630859 358.82158203 441.47050781 359.46933594 442.14453125 360.13671875 C443.03942261 361.01589966 443.03942261 361.01589966 443.95239258 361.9128418 C445.25 363.4375 445.25 363.4375 445.25 365.4375 C445.82234375 365.685 446.3946875 365.9325 446.984375 366.1875 C449.60010611 367.63066199 451.39773456 369.31966222 453.5 371.4375 C454.20640625 372.13875 454.9128125 372.84 455.640625 373.5625 C457.25 375.4375 457.25 375.4375 457.25 377.4375 C458.178125 377.80875 458.178125 377.80875 459.125 378.1875 C461.67968717 379.69025716 461.94859247 380.83468494 463.25 383.4375 C464.90002828 384.79136936 466.5674387 386.12428142 468.25 387.4375 C471.25 390.95474138 471.25 390.95474138 471.25 393.4375 C472.24 393.7675 473.23 394.0975 474.25 394.4375 C474.58 395.4275 474.91 396.4175 475.25 397.4375 C476.24 397.4375 477.23 397.4375 478.25 397.4375 C479.64453125 398.79296875 479.64453125 398.79296875 481.0625 400.625 C483.82286416 404.02762711 486.8739023 406.63605723 490.25 409.4375 C493.52643634 412.73973505 495.25 414.54856024 495.25 419.4375 C496.3328125 419.5303125 496.3328125 419.5303125 497.4375 419.625 C501.18117443 420.70650595 502.6366921 422.56923523 505.25 425.4375 C506.27797007 426.19109362 507.30594013 426.94468723 508.36506081 427.72111702 C512.34387295 431.73817653 511.97307171 436.15146879 512.02448463 441.55697823 C512.00737434 442.94203485 511.98970207 444.32708462 511.9715271 445.71212769 C511.97415288 447.18630135 511.97941667 448.66047227 511.98709106 450.1346283 C512.00054784 454.19010757 511.9764727 458.24463625 511.94643638 462.2999948 C511.92024546 466.73849619 511.92900341 471.17695342 511.93334389 475.61551094 C511.93653465 484.23246677 511.9088235 492.84904764 511.87033591 501.4659071 C511.82715164 511.43246801 511.82236835 521.39880339 511.81762695 531.36547852 C511.78611926 557.68121182 511.70235263 583.99686152 511.625 610.3125 C511.50125 669.09375 511.3775 727.875 511.25 788.4375 C375.29 788.4375 239.33 788.4375 99.25 788.4375 C98.92 787.4475 98.59 786.4575 98.25 785.4375 C97.26 785.4375 96.27 785.4375 95.25 785.4375 C95.1675 784.81875 95.085 784.2 95 783.5625 C94.47234443 781.28089318 94.47234443 781.28089318 92.40625 780.5234375 C89.98352121 779.3032951 88.73499699 778.00547621 87 775.9375 C86.47921875 775.3290625 85.9584375 774.720625 85.421875 774.09375 C84.25 772.4375 84.25 772.4375 84.25 770.4375 C83.693125 770.19 83.13625 769.9425 82.5625 769.6875 C78.87226282 767.6927772 75.96556877 765.65085574 73.8125 762 C72.19321984 759.34438053 70.41406486 757.91727097 67.9921875 756.01953125 C64.97554612 753.28020444 62.62146021 749.99369097 60.12109375 746.7890625 C57.99998299 744.12328237 55.7192387 741.78327677 53.25 739.4375 C48.63385409 734.92939155 44.23635674 730.33071512 40.03125 725.4375 C38.1757479 723.35412922 36.23776899 721.39468793 34.25 719.4375 C31.02921853 716.26617391 28.06173926 712.95696496 25.12109375 709.52734375 C22.24554748 706.31561671 19.1592186 703.32545166 16.0703125 700.3203125 C14.25 698.4375 14.25 698.4375 13.25 696.4375 C12.26 696.1075 11.27 695.7775 10.25 695.4375 C8.99609375 693.94140625 8.99609375 693.94140625 7.6875 692 C4.44623923 687.49287371 0.6612672 683.75602578 -3.30078125 679.8828125 C-5.42885349 677.75813432 -7.41959559 675.59455091 -9.375 673.3125 C-15.31508588 665.96994282 -15.31508588 665.96994282 -22.75 660.4375 C-23.13671875 659.74269531 -23.5234375 659.04789063 -23.921875 658.33203125 C-26.42701941 654.36555259 -29.64108834 651.37545365 -33 648.125 C-37.5350357 643.71265565 -41.87320315 639.23511953 -46.00341797 634.44018555 C-48.97023768 631.03833734 -52.08307462 627.77587602 -55.1875 624.5 C-55.87126709 623.77562744 -56.55503418 623.05125488 -57.25952148 622.30493164 C-59.42163905 620.01448385 -61.5855775 617.72576966 -63.75 615.4375 C-66.60584416 612.41824589 -69.45974147 609.39716943 -72.3125 606.375 C-73.27530884 605.35901733 -73.27530884 605.35901733 -74.25756836 604.32250977 C-77.98118932 600.37736614 -81.60127553 596.36368872 -85.13842773 592.25024414 C-86.77839906 590.4055559 -88.48842958 588.66581853 -90.25 586.9375 C-93.3349279 583.90790713 -96.17576687 580.72233017 -98.9765625 577.4296875 C-101.14217927 574.99694619 -103.43191464 572.72595074 -105.75 570.4375 C-108.21104291 568.00272147 -110.66843725 565.56429775 -113.125 563.125 C-113.75921875 562.49916016 -114.3934375 561.87332031 -115.046875 561.22851562 C-118.84677593 557.44800194 -122.43743926 553.555864 -125.9375 549.49731445 C-129.88570474 545.01037973 -134.08039291 540.74288607 -138.22851562 536.44140625 C-138.91236328 535.72339844 -139.59621094 535.00539063 -140.30078125 534.265625 C-140.91606689 533.6252832 -141.53135254 532.98494141 -142.1652832 532.32519531 C-143.75 530.4375 -143.75 530.4375 -144.77807617 528.26074219 C-145.67124592 526.08130322 -145.67124592 526.08130322 -148.75 525.4375 C-150.55848055 523.41259473 -152.22601113 521.39869114 -153.875 519.25 C-154.36073486 518.62287109 -154.84646973 517.99574219 -155.34692383 517.34960938 C-160.22491553 510.96155418 -164.58989111 504.30948225 -168.75 497.4375 C-169.29382324 496.54732178 -169.29382324 496.54732178 -169.84863281 495.63916016 C-178.90866078 480.70987987 -183.05966855 467.08481088 -183.01742554 449.57293701 C-183.02116706 448.17612471 -183.02577058 446.77931449 -183.03115618 445.38250756 C-183.04333949 441.5627819 -183.04313126 437.74314414 -183.04076743 433.9234035 C-183.04035808 429.79647151 -183.05140965 425.66956726 -183.06088257 421.54264832 C-183.07746776 413.4642162 -183.08299099 405.38581328 -183.08410732 397.30736557 C-183.08505895 390.73827459 -183.08917496 384.16919322 -183.09550858 377.60010529 C-183.113114 358.95970524 -183.12234851 340.31932818 -183.12084763 321.67891976 C-183.12076772 320.6748323 -183.1206878 319.67074483 -183.12060547 318.63623047 C-183.12052371 317.63091161 -183.12044195 316.62559275 -183.12035771 315.58980969 C-183.11954494 299.30024453 -183.13868199 283.01077187 -183.1668822 266.72123346 C-183.19563526 249.97974546 -183.20942117 233.23830253 -183.20769465 216.49678922 C-183.2070316 207.1039268 -183.21248668 197.71116136 -183.23405075 188.31832123 C-183.2522944 180.32078442 -183.25658377 172.32338856 -183.2430319 164.32583991 C-183.23651837 160.24923175 -183.23632629 156.17289375 -183.2537384 152.09631157 C-183.26954613 148.35673787 -183.26652798 144.61764681 -183.24917014 140.87808433 C-183.24468241 138.90080297 -183.25969686 136.92350616 -183.27564943 134.94628406 C-183.1373756 116.88773781 -175.56811967 101.79814533 -163.75 88.4375 C-163.23179687 87.82519531 -162.71359375 87.21289062 -162.1796875 86.58203125 C-154.56544946 78.22167441 -143.47585959 71.83666404 -132.75 68.4375 C-131.36433838 67.92521851 -131.36433838 67.92521851 -129.95068359 67.40258789 C-124.16064274 65.76714421 -118.12294369 66.19312012 -112.16015625 66.2421875 C-110.86049423 66.2450174 -109.56083221 66.24784729 -108.2217865 66.25076294 C-104.78750745 66.25835345 -101.35340093 66.27796177 -97.91918945 66.3001709 C-94.40643649 66.32072879 -90.89365531 66.3297858 -87.38085938 66.33984375 C-80.50383594 66.36121264 -73.62692628 66.39529236 -66.75 66.4375 C-66.76094444 65.09408287 -66.76094444 65.09408287 -66.77210999 63.723526 C-66.77778488 62.55027267 -66.78345978 61.37701935 -66.78930664 60.16821289 C-66.80025108 58.42260826 -66.80025108 58.42260826 -66.81141663 56.64173889 C-66.52306513 41.59781453 -56.73798549 27.93040735 -46.28857422 17.83056641 C-39.09890534 11.32084717 -30.9756665 6.4482714 -21.75 3.4375 C-20.83395996 3.06564575 -20.83395996 3.06564575 -19.89941406 2.6862793 C-13.26931586 0.14765356 -7.04950955 -0.0652874 0 0 Z " fill="#5D9AB9" transform="translate(512.75,235.5625)"/>
<path d="M0 0 C1.35154746 0.01508568 2.70311135 0.02876717 4.0546875 0.04101562 C7.32855371 0.07609276 10.6015568 0.12524903 13.875 0.1875 C12.76236422 3.52540735 11.97009961 4.15937624 9.3125 6.3125 C0.94266716 13.46517582 -6.11896124 20.58086544 -7.60546875 31.8203125 C-8.32375664 42.10025753 -5.75435924 49.56867375 -0.125 58.1875 C0.86601178 59.19640815 1.86261754 60.20003772 2.875 61.1875 C2.875 61.8475 2.875 62.5075 2.875 63.1875 C3.43058594 63.46464844 3.98617187 63.74179687 4.55859375 64.02734375 C6.1570211 64.82790517 7.75324901 65.63286798 9.34765625 66.44140625 C10.20230469 66.87324219 11.05695313 67.30507813 11.9375 67.75 C12.79472656 68.18441406 13.65195312 68.61882812 14.53515625 69.06640625 C18.45505929 70.94455679 21.43059392 71.31888925 25.73570251 71.34140015 C26.95936523 71.35000061 28.18302795 71.35860107 29.44377136 71.36746216 C30.80227619 71.37189739 32.16078146 71.37619575 33.51928711 71.38037109 C34.94851886 71.38827413 36.37774864 71.39654321 37.80697632 71.40515137 C42.50541278 71.43136295 47.20385807 71.44668489 51.90234375 71.4609375 C53.52260404 71.46629881 55.14286428 71.47167632 56.76312447 71.47706985 C63.50837781 71.49870333 70.25362878 71.5174357 76.99890804 71.52869225 C86.64694412 71.54490087 96.2945755 71.57799772 105.94245905 71.63509309 C112.73500749 71.67391005 119.52744827 71.69333917 126.32010466 71.69861281 C130.37163208 71.70225218 134.42272779 71.7141201 138.47413445 71.74671555 C142.29347936 71.7770016 146.11213609 71.78303602 149.93157578 71.77133179 C151.32465124 71.77111271 152.71776054 71.77927892 154.1107235 71.79698563 C165.30489521 71.93139855 175.92789212 69.93846856 184.34765625 61.9921875 C192.62566356 52.21101262 194.88284808 42.7209954 193.875 30.1875 C191.52552664 19.33233826 182.994928 10.36376069 174.875 3.1875 C173.885 2.6925 173.885 2.6925 172.875 2.1875 C172.875 1.5275 172.875 0.8675 172.875 0.1875 C177.08839937 0.08737352 181.30113814 0.01545126 185.51538086 -0.03222656 C186.94388924 -0.05213609 188.37231838 -0.07927429 189.80053711 -0.11425781 C202.67182034 -0.4212544 212.97633884 1.43023515 222.875 10.1875 C223.61621094 10.81269531 224.35742188 11.43789063 225.12109375 12.08203125 C233.58514437 19.77532515 238.66565011 28.00238184 239.51763153 39.44894218 C239.83297201 46.70625639 239.81358644 53.96165936 239.76075459 61.22357476 C239.74064439 65.048525 239.76123766 68.87329916 239.77645874 72.69824219 C239.79978461 80.17458542 239.78579925 87.65040496 239.75852022 95.1267169 C239.72790849 103.84808523 239.73290252 112.56932816 239.73874763 121.29073501 C239.74780039 136.86132843 239.72205038 152.43167298 239.67773438 168.00219727 C239.63482219 183.08236247 239.62064205 198.1622131 239.63671875 213.24243164 C239.65422023 229.69506258 239.65588859 246.14755125 239.63013482 262.60017639 C239.62740193 264.35750042 239.62467559 266.11482446 239.62195587 267.87214851 C239.62059452 268.73660274 239.61923317 269.60105696 239.61783056 270.49170677 C239.60923934 276.55873969 239.61143616 282.62571316 239.61760712 288.69274712 C239.62468554 296.09583374 239.61328783 303.49863329 239.57909927 310.90164834 C239.56208524 314.67275842 239.55269773 318.44344097 239.56523514 322.21457863 C239.67087737 358.11839232 239.67087737 358.11839232 227.46484375 371.74609375 C220.57536369 378.24070165 213.04551716 382.8315922 203.875 385.1875 C202.885 385.5175 201.895 385.8475 200.875 386.1875 C198.02541098 386.29011209 195.20000671 386.33530551 192.35009766 386.33467102 C191.46916474 386.33834771 190.58823183 386.3420244 189.68060398 386.3458125 C186.71675098 386.35686103 183.75293303 386.36069521 180.7890625 386.36450195 C178.66856271 386.37076587 176.54806401 386.3774126 174.42756653 386.38441467 C167.45171882 386.40547104 160.47587085 386.41582046 153.5 386.42578125 C151.09839873 386.42982861 148.69679757 386.43394553 146.29519653 386.43813133 C135.00938154 386.45718868 123.72357309 386.47141698 112.43774509 386.4797433 C99.41503162 386.48950967 86.3924884 386.51581138 73.3698349 386.55624419 C63.30259305 386.58642671 53.23539992 386.60121433 43.16811371 386.60452431 C37.15661572 386.60687291 31.1452995 386.6158085 25.1338501 386.64098549 C19.47361751 386.6643075 13.81368581 386.66848267 8.15341759 386.65822411 C6.08105149 386.6577296 4.00867038 386.66402485 1.93634987 386.67778015 C-12.39078867 386.76752099 -23.94183523 386.10590208 -35.125 376.1875 C-35.8778125 375.53910156 -36.630625 374.89070313 -37.40625 374.22265625 C-45.90526823 366.38939445 -51.51987926 356.10345953 -52.31189036 344.43382323 C-52.38834856 341.13579973 -52.40112843 337.8430549 -52.39242554 334.54414368 C-52.39695665 333.2805794 -52.40148776 332.01701513 -52.40615618 330.71516103 C-52.41834312 327.22381938 -52.41813083 323.73257387 -52.41576743 320.24121583 C-52.41535817 316.46941485 -52.42640891 312.69764425 -52.43588257 308.92585754 C-52.4524703 301.54178636 -52.45799112 294.15774711 -52.45910732 286.77365885 C-52.46005893 280.76852153 -52.46417487 274.76339472 -52.47050858 268.75826073 C-52.48811555 251.7167404 -52.49734839 234.67524522 -52.49584763 217.63371573 C-52.49576772 216.71568573 -52.4956878 215.79765573 -52.49560547 214.85180664 C-52.49552371 213.93265011 -52.49544195 213.01349358 -52.49535771 212.06648382 C-52.49454515 197.17685431 -52.5136767 182.28732604 -52.5418822 167.3977258 C-52.57064308 152.09364461 -52.58442071 136.78961274 -52.58269465 121.48550385 C-52.58203182 112.89969397 -52.58747721 104.3139902 -52.60905075 95.72820473 C-52.62730485 88.41684842 -52.63157536 81.10564633 -52.6180319 73.79427705 C-52.61152325 70.06803766 -52.61130816 66.34209375 -52.6287384 62.61588287 C-52.64748857 58.56562565 -52.63485985 54.51604596 -52.61947632 50.46577454 C-52.62976344 49.30290446 -52.64005057 48.14003439 -52.65064943 46.94192582 C-52.53736757 33.38392362 -48.62021173 21.99814149 -39.17578125 12.15625 C-27.84971605 1.65349406 -15.01202768 -0.29041125 0 0 Z " fill="#1C3F5B" transform="translate(420.125,336.8125)"/>
<path d="M0 0 C1.73697144 0.01353516 1.73697144 0.01353516 3.5090332 0.02734375 C11.8152508 0.19596225 18.65748346 0.86395555 26.25 4.4375 C27.13123535 4.83219482 27.13123535 4.83219482 28.03027344 5.23486328 C45.96522104 13.38166339 59.0749795 26.91857358 66.25 45.4375 C66.53810547 46.46810547 66.53810547 46.46810547 66.83203125 47.51953125 C68.67359322 54.02461707 72.99246049 59.32792318 78.32946777 63.375 C84.77811142 66.94259641 93.45485627 65.67736156 100.5625 65.4375 C104.14183628 65.37256727 107.72095695 65.33705573 111.30078125 65.3125 C112.59313942 65.29941803 112.59313942 65.29941803 113.91160583 65.28607178 C130.3192347 65.27387433 145.89947286 70.50683273 158.25 81.4375 C159.05953125 82.09363281 159.8690625 82.74976563 160.703125 83.42578125 C173.31778849 94.00894218 181.50802165 108.16445457 184.25 124.4375 C184.50455212 125.80635665 184.50455212 125.80635665 184.7642467 127.20286697 C185.22974923 130.30265007 185.37752162 133.19321052 185.38142776 136.32444096 C185.38526891 137.48485749 185.38911005 138.64527403 185.3930676 139.8408547 C185.39220112 141.10630493 185.39133463 142.37175516 185.39044189 143.67555237 C185.39302744 145.04090027 185.39604112 146.40624741 185.3994453 147.77159351 C185.4074965 151.51826576 185.40930382 155.26491883 185.41004276 159.01159871 C185.41189662 163.05472966 185.41944569 167.09785073 185.42617798 171.14097595 C185.439749 179.98005324 185.44578425 188.81912598 185.45018864 197.65821195 C185.45295344 203.18047192 185.45719125 208.70273015 185.46169281 214.22498894 C185.47388443 229.52299292 185.48418359 244.82099551 185.4875679 260.11900425 C185.48778747 261.09777015 185.48800703 262.07653605 185.48823325 263.08496153 C185.48845153 264.06603469 185.48866981 265.04710785 185.4888947 266.0579105 C185.48933816 268.04584984 185.48978473 270.03378918 185.49023438 272.02172852 C185.4904558 273.00780958 185.49067723 273.99389063 185.49090537 275.00985294 C185.49485141 290.97949712 185.51229998 306.94909562 185.5355939 322.91872216 C185.55933187 339.32562675 185.57177088 355.73250843 185.57293582 372.13943046 C185.57385126 381.34676377 185.57957055 390.55403757 185.59775543 399.76135445 C185.61318953 407.60340215 185.61825744 415.44537195 185.61001733 423.28743196 C185.60612237 427.2849939 185.60698363 431.28239911 185.62107468 435.27994156 C185.63388335 438.94739497 185.63255568 442.61457502 185.62048396 446.28202843 C185.61762522 448.22067715 185.62940979 450.15933091 185.64190602 452.09794146 C185.52993922 472.12451423 177.96723075 490.75209598 163.9375 505.125 C159.55793157 509.4375 159.55793157 509.4375 157.25 509.4375 C156.9096875 510.55125 156.9096875 510.55125 156.5625 511.6875 C154.98176379 514.99951872 153.29493579 516.43229838 150.25 518.4375 C149.26 518.4375 148.27 518.4375 147.25 518.4375 C146.92 519.0975 146.59 519.7575 146.25 520.4375 C143.10776049 521.63454362 139.92446768 522.52887749 136.6875 523.4375 C133.36441622 524.33058182 133.36441622 524.33058182 130.75 525.5 C127.62321608 526.67254397 124.55170692 527.0014255 121.25 527.4375 C120.59 527.7675 119.93 528.0975 119.25 528.4375 C118.46351074 528.29586426 117.67702148 528.15422852 116.86669922 528.00830078 C111.70205693 527.19319793 106.60347142 527.29534009 101.3828125 527.3046875 C100.21098923 527.30341354 99.03916595 527.30213959 97.83183289 527.30082703 C94.01286352 527.29901954 90.19396239 527.30538202 86.375 527.3125 C84.4308168 527.31333084 84.4308168 527.31333084 82.44735718 527.31417847 C64.00454815 527.32344356 45.57909823 527.52658779 27.14697266 528.16943359 C26.38206009 528.19423294 25.61714752 528.21903229 24.82905579 528.24458313 C22.81789901 528.31070624 20.80700174 528.38460106 18.79614258 528.45922852 C15.25 528.4375 15.25 528.4375 12.34484863 527.94125366 C6.6611859 527.09687949 0.91764279 527.32418304 -4.8137207 527.35571289 C-6.81642665 527.36041972 -8.8191326 527.36512441 -10.82183874 527.369748 C-12.96298114 527.3756153 -15.10410198 527.3839372 -17.24523354 527.39290047 C-21.71159287 527.41125175 -26.17794459 527.42080658 -30.64433289 527.42881775 C-43.34047835 527.45292928 -56.03657623 527.48896664 -68.73266602 527.53344727 C-75.75380436 527.55796819 -82.7749245 527.57534429 -89.79609936 527.58500665 C-94.23881797 527.59155754 -98.68138601 527.60713069 -103.12405264 527.62932408 C-106.52711536 527.64376786 -109.93016075 527.64523073 -113.33325195 527.64868164 C-114.56806305 527.65744324 -115.80287415 527.66620483 -117.07510376 527.67523193 C-118.19523361 527.67392776 -119.31536346 527.6726236 -120.46943665 527.67127991 C-121.44666341 527.67442231 -122.42389017 527.67756472 -123.43072987 527.68080235 C-125.75 527.4375 -125.75 527.4375 -127.75 525.4375 C-129.14304833 524.76422572 -130.56303455 524.14578658 -131.99609375 523.5625 C-132.83333984 523.21703125 -133.67058594 522.8715625 -134.53320312 522.515625 C-135.40912109 522.15984375 -136.28503906 521.8040625 -137.1875 521.4375 C-138.91655456 520.73207641 -140.64447015 520.023853 -142.37109375 519.3125 C-143.1386499 519.00054688 -143.90620605 518.68859375 -144.69702148 518.3671875 C-146.75 517.4375 -146.75 517.4375 -149.75 515.4375 C-150.08 515.7675 -150.41 516.0975 -150.75 516.4375 C-150.255 517.9225 -150.255 517.9225 -149.75 519.4375 C-150.74 519.7675 -151.73 520.0975 -152.75 520.4375 C-170.12949012 499.36679074 -183.26942042 476.98070537 -183.13768005 449.09191895 C-183.14186334 447.69165259 -183.14734626 446.29138963 -183.15399987 444.89113283 C-183.16834253 441.08039991 -183.1642452 437.26988532 -183.15683305 433.45914102 C-183.15207582 429.33499945 -183.16463357 425.2109034 -183.17485046 421.08677673 C-183.19199303 413.0222445 -183.19288807 404.95779034 -183.18763756 396.89324462 C-183.18358673 390.33568717 -183.18505022 383.77815268 -183.19038582 377.22059631 C-183.19113424 376.28526362 -183.19188266 375.34993093 -183.19265376 374.38625482 C-183.19418532 372.48580626 -183.19572367 370.58535771 -183.19726873 368.68490916 C-183.21097692 350.88822657 -183.20556755 333.09158801 -183.19408352 315.29490644 C-183.18414925 299.03145767 -183.19709816 282.76812265 -183.22101771 266.50469142 C-183.24542761 249.78115175 -183.25501216 233.057665 -183.24836498 216.33410788 C-183.24487744 206.95472498 -183.2470743 197.57542956 -183.26461601 188.19606018 C-183.27936149 180.21325184 -183.27994263 172.23059261 -183.2625451 164.24778712 C-183.2540527 160.17925752 -183.25184227 156.11099404 -183.26719666 152.04247856 C-183.28110626 148.31045725 -183.27620115 144.57892848 -183.25695742 140.84693521 C-183.25145836 138.87382767 -183.26541623 136.90069465 -183.28031152 134.92763567 C-183.13253857 116.87834304 -175.56212445 101.7913676 -163.75 88.4375 C-163.23179687 87.82519531 -162.71359375 87.21289062 -162.1796875 86.58203125 C-154.56544946 78.22167441 -143.47585959 71.83666404 -132.75 68.4375 C-131.36433838 67.92521851 -131.36433838 67.92521851 -129.95068359 67.40258789 C-124.16064274 65.76714421 -118.12294369 66.19312012 -112.16015625 66.2421875 C-110.86049423 66.2450174 -109.56083221 66.24784729 -108.2217865 66.25076294 C-104.78750745 66.25835345 -101.35340093 66.27796177 -97.91918945 66.3001709 C-94.40643649 66.32072879 -90.89365531 66.3297858 -87.38085938 66.33984375 C-80.50383594 66.36121264 -73.62692628 66.39529236 -66.75 66.4375 C-66.76094444 65.09408287 -66.76094444 65.09408287 -66.77210999 63.723526 C-66.77778488 62.55027267 -66.78345978 61.37701935 -66.78930664 60.16821289 C-66.80025108 58.42260826 -66.80025108 58.42260826 -66.81141663 56.64173889 C-66.52306513 41.59781453 -56.73798549 27.93040735 -46.28857422 17.83056641 C-39.09890534 11.32084717 -30.9756665 6.4482714 -21.75 3.4375 C-20.83395996 3.06564575 -20.83395996 3.06564575 -19.89941406 2.6862793 C-13.26931586 0.14765356 -7.04950955 -0.0652874 0 0 Z M-135.125 116.8125 C-143.3434292 127.23992896 -145.05142075 138.19465827 -145.01742554 151.08085632 C-145.02195665 152.3444206 -145.02648776 153.60798487 -145.03115618 154.90983897 C-145.04334312 158.40118062 -145.04313083 161.89242613 -145.04076743 165.38378417 C-145.04035817 169.15558515 -145.05140891 172.92735575 -145.06088257 176.69914246 C-145.0774703 184.08321364 -145.08299112 191.46725289 -145.08410732 198.85134115 C-145.08505893 204.85647847 -145.08917487 210.86160528 -145.09550858 216.86673927 C-145.11311555 233.9082596 -145.12234839 250.94975478 -145.12084763 267.99128427 C-145.12076772 268.90931427 -145.1206878 269.82734427 -145.12060547 270.77319336 C-145.12052371 271.69234989 -145.12044195 272.61150642 -145.12035771 273.55851618 C-145.11954515 288.44814569 -145.1386767 303.33767396 -145.1668822 318.2272742 C-145.19564308 333.53135539 -145.20942071 348.83538726 -145.20769465 364.13949615 C-145.20703182 372.72530603 -145.21247721 381.3110098 -145.23405075 389.89679527 C-145.25230485 397.20815158 -145.25657536 404.51935367 -145.2430319 411.83072295 C-145.23652325 415.55696234 -145.23630816 419.28290625 -145.2537384 423.00911713 C-145.27248857 427.05937435 -145.25985985 431.10895404 -145.24447632 435.15922546 C-145.25476344 436.32209554 -145.26505057 437.48496561 -145.27564943 438.68307418 C-145.14957955 453.77159622 -140.13407415 464.95594346 -129.875 475.75 C-125.74826114 479.74082829 -122.03738567 482.32646435 -116.75 484.4375 C-115.53858306 484.95686945 -114.32716612 485.4762389 -113.07903957 486.01134682 C-108.53893026 487.69682644 -104.41462443 487.857905 -99.61036682 487.81845093 C-98.72375065 487.8231309 -97.83713448 487.82781087 -96.92365116 487.83263266 C-93.97051164 487.84454137 -91.01783973 487.83514153 -88.06469727 487.82568359 C-85.94021332 487.82975115 -83.8157315 487.83509406 -81.69125366 487.84161377 C-75.93298936 487.85527201 -70.17488661 487.84999458 -64.41661954 487.84047651 C-58.38434498 487.83287125 -52.35208407 487.83992803 -46.31980896 487.84463501 C-36.18933637 487.85009044 -26.05892942 487.84290692 -15.9284668 487.82861328 C-4.22572235 487.81229163 7.47686526 487.81757268 19.1796059 487.8340925 C29.23588922 487.84771863 39.29212539 487.84962136 49.34841496 487.84177649 C55.35078155 487.83710563 61.3530745 487.83645895 67.35543633 487.84638596 C73.00012022 487.85506953 78.6446025 487.84900811 84.28926468 487.83170319 C86.35762383 487.82774561 88.42600003 487.82885986 90.49435234 487.83549118 C93.32425627 487.84372567 96.15351972 487.83336203 98.98338318 487.81845093 C99.79604643 487.82514309 100.60870968 487.83183526 101.44599909 487.83873022 C114.46276737 487.70628696 125.9494954 481.19180857 135.25 472.4375 C144.60956446 462.00827104 146.85768105 449.64152877 146.77812195 436.00978088 C146.78647861 434.72223229 146.79483527 433.43468369 146.80344516 432.10811847 C146.82574868 428.57290703 146.8235503 425.03809129 146.81687582 421.50283182 C146.81398107 417.67516691 146.83410182 413.84760812 146.85102844 410.01998901 C146.88027613 402.53664864 146.88768115 395.05344328 146.88645294 387.57005162 C146.88561823 381.48398481 146.89150701 375.39796042 146.90207863 369.311903 C146.9347172 350.14857912 146.94375389 330.98538607 146.93498889 311.82203846 C146.9290063 296.72961507 146.95941534 281.63751643 147.00661161 266.54517401 C147.05477839 251.02055785 147.07678048 235.49609791 147.0713008 219.97140545 C147.06873003 211.2665075 147.07660743 202.56192083 147.11237144 193.85708809 C147.14257545 186.44769725 147.1481764 179.03877983 147.12256243 171.62936348 C147.11018997 167.85414584 147.10877424 164.07981668 147.13827133 160.30467415 C147.75877345 139.18279046 147.75877345 139.18279046 139.25 120.4375 C138.7460908 119.75419396 138.24218161 119.07088793 137.72300243 118.36687565 C132.22954066 111.66046989 125.38771779 106.43845241 117.25 103.4375 C116.36344727 103.09364258 115.47689453 102.74978516 114.56347656 102.39550781 C110.84438208 101.32022585 107.75044164 101.21022362 103.8828125 101.2421875 C103.20322479 101.2450174 102.52363708 101.24784729 101.82345581 101.25076294 C99.67378392 101.26187036 97.52454386 101.28695609 95.375 101.3125 C93.90886023 101.32254205 92.44271386 101.33166575 90.9765625 101.33984375 C87.40090369 101.36177841 83.82549406 101.39624186 80.25 101.4375 C80.25 102.0975 80.25 102.7575 80.25 103.4375 C81.80383147 104.96987551 81.80383147 104.96987551 83.8125 106.5625 C92.69280391 114.13826369 100.24111329 122.8813646 101.65625 134.8828125 C101.89454017 144.23570182 100.34596947 150.58070697 95.25 158.4375 C94.84394531 159.06398438 94.43789063 159.69046875 94.01953125 160.3359375 C89.38913117 166.56248231 81.64253113 170.56010268 74.25 172.4375 C69.5049791 172.87883136 64.7675943 172.85872861 60.00634766 172.84155273 C58.57312999 172.84726307 57.13991686 172.85422989 55.70671082 172.86235046 C51.83260359 172.88022525 47.95872358 172.8791241 44.08458757 172.87340808 C40.84175896 172.87030752 37.59897345 172.87641839 34.35615098 172.88244683 C26.70093886 172.89647221 19.04583838 172.89494776 11.390625 172.88354492 C3.51298819 172.87206951 -4.36430793 172.88613405 -12.24189985 172.9129414 C-19.02350194 172.93514863 -25.80499748 172.94172438 -32.58663332 172.93586498 C-36.62897887 172.93250571 -40.67110616 172.93484133 -44.71342087 172.95211601 C-48.51720693 172.96766321 -52.32049125 172.96354448 -56.12425804 172.94481087 C-57.513313 172.94114614 -58.90240579 172.94417117 -60.2914257 172.95469666 C-71.07420384 173.0301117 -79.45499717 171.69562748 -87.75 164.4375 C-88.41 164.4375 -89.07 164.4375 -89.75 164.4375 C-90.02972656 163.85613281 -90.30945313 163.27476562 -90.59765625 162.67578125 C-92.02814497 159.89723875 -93.71772116 157.33924056 -95.43359375 154.73046875 C-100.12610899 146.55685912 -101.05710856 138.65569496 -99.75 129.4375 C-96.7260111 118.70680521 -87.90151176 109.53850784 -78.75 103.4375 C-78.75 102.7775 -78.75 102.1175 -78.75 101.4375 C-82.64184452 101.33690555 -86.53316254 101.26524159 -90.42602539 101.21777344 C-92.38389776 101.18830673 -94.34141099 101.13742242 -96.29882812 101.0859375 C-111.91545812 100.92698961 -124.35988326 105.22561862 -135.125 116.8125 Z " fill="#1F435F" transform="translate(512.75,235.5625)"/>
<path d="M0 0 C1.35154746 0.01508568 2.70311135 0.02876717 4.0546875 0.04101562 C7.32855371 0.07609276 10.6015568 0.12524903 13.875 0.1875 C12.76236422 3.52540735 11.97009961 4.15937624 9.3125 6.3125 C0.94266716 13.46517582 -6.11896124 20.58086544 -7.60546875 31.8203125 C-8.32375664 42.10025753 -5.75435924 49.56867375 -0.125 58.1875 C0.86601178 59.19640815 1.86261754 60.20003772 2.875 61.1875 C2.875 61.8475 2.875 62.5075 2.875 63.1875 C3.43058594 63.46464844 3.98617187 63.74179687 4.55859375 64.02734375 C6.1570211 64.82790517 7.75324901 65.63286798 9.34765625 66.44140625 C10.20230469 66.87324219 11.05695313 67.30507813 11.9375 67.75 C12.79472656 68.18441406 13.65195312 68.61882812 14.53515625 69.06640625 C18.45505929 70.94455679 21.43059392 71.31888925 25.73570251 71.34140015 C26.95936523 71.35000061 28.18302795 71.35860107 29.44377136 71.36746216 C30.80227619 71.37189739 32.16078146 71.37619575 33.51928711 71.38037109 C34.94851886 71.38827413 36.37774864 71.39654321 37.80697632 71.40515137 C42.50541278 71.43136295 47.20385807 71.44668489 51.90234375 71.4609375 C53.52260404 71.46629881 55.14286428 71.47167632 56.76312447 71.47706985 C63.50837781 71.49870333 70.25362878 71.5174357 76.99890804 71.52869225 C86.64694412 71.54490087 96.2945755 71.57799772 105.94245905 71.63509309 C112.73500749 71.67391005 119.52744827 71.69333917 126.32010466 71.69861281 C130.37163208 71.70225218 134.42272779 71.7141201 138.47413445 71.74671555 C142.29347936 71.7770016 146.11213609 71.78303602 149.93157578 71.77133179 C151.32465124 71.77111271 152.71776054 71.77927892 154.1107235 71.79698563 C165.30489521 71.93139855 175.92789212 69.93846856 184.34765625 61.9921875 C192.62566356 52.21101262 194.88284808 42.7209954 193.875 30.1875 C191.52552664 19.33233826 182.994928 10.36376069 174.875 3.1875 C173.885 2.6925 173.885 2.6925 172.875 2.1875 C172.875 1.5275 172.875 0.8675 172.875 0.1875 C177.08839937 0.08737352 181.30113814 0.01545126 185.51538086 -0.03222656 C186.94388924 -0.05213609 188.37231838 -0.07927429 189.80053711 -0.11425781 C205.80025587 -0.49587159 215.96573095 3.53369781 227.5625 14.5 C237.03825449 24.22124036 238.03031226 33.04262865 237.98852539 46.15966797 C237.98867142 47.36023331 237.98881744 48.56079865 237.9889679 49.79774475 C237.98839211 53.07622772 237.98338937 56.35466758 237.97639394 59.63314199 C237.97012723 63.0644369 237.96955398 66.49573272 237.96836853 69.92703247 C237.96526498 76.41858758 237.95706478 82.91012577 237.94701904 89.40167344 C237.93582755 96.79465626 237.93033981 104.18763992 237.92532361 111.58062911 C237.91488133 126.78292882 237.89730084 141.98521271 237.875 157.1875 C236.74943444 156.23486304 235.62557589 155.28020896 234.50244141 154.32470703 C233.87641022 153.79330109 233.25037903 153.26189514 232.6053772 152.71438599 C230.62546531 150.96731042 228.9257017 149.10140798 227.25 147.0625 C224.68047658 144.03783679 222.06125638 141.57719228 218.875 139.1875 C216.66504425 137.08505561 214.7102409 134.83429654 212.75 132.5 C210.13035213 129.45943619 207.39677096 126.87665781 204.3125 124.3125 C200.21791401 120.79988563 197.93443758 117.14452487 195.34765625 112.4609375 C192.55343887 108.1473181 188.73507783 105.80752594 183.875 104.1875 C180.97759314 103.91707536 178.08027543 103.74346361 175.17578125 103.56640625 C171.875 103.1875 171.875 103.1875 168.51303101 102.1809845 C162.53550985 100.66567579 156.4955307 100.90074403 150.36572266 100.9128418 C149.01132427 100.9084878 147.65692834 100.90330237 146.30253601 100.89735413 C142.64333606 100.88402635 138.98423979 100.88337851 135.32502031 100.88591743 C132.2611434 100.88699144 129.1972871 100.88209276 126.13341463 100.877312 C118.90012514 100.86623819 111.6668876 100.86576732 104.43359375 100.87182617 C96.99226425 100.87786382 89.55112392 100.86555545 82.10982668 100.8442561 C75.70190662 100.82659467 69.29404652 100.82064591 62.88610303 100.82389385 C59.06735355 100.82569973 55.24873901 100.8231405 51.43001175 100.80917931 C47.83641888 100.79653142 44.24311919 100.7986101 40.64953041 100.81159019 C38.71683093 100.81505337 36.78412221 100.80382931 34.85145569 100.79202271 C22.78378791 100.86426183 13.43136374 103.64458396 3.875 111.1875 C-3.38366752 118.82975564 -6.18706798 126.80236282 -6.3359375 137.2109375 C-6.36400589 138.57553283 -6.39267036 139.94011601 -6.421875 141.3046875 C-6.46304799 143.43293919 -6.49998096 145.56096382 -6.52636719 147.68945312 C-6.55418627 149.75957687 -6.60004375 151.82870548 -6.6484375 153.8984375 C-6.66825684 155.12868652 -6.68807617 156.35893555 -6.70849609 157.62646484 C-7.1896073 161.73988107 -8.39605031 164.44558308 -10.125 168.1875 C-10.59070964 171.22080523 -10.59070964 171.22080523 -10.5 174.1875 C-10.50773437 175.156875 -10.51546875 176.12625 -10.5234375 177.125 C-10.26999799 180.30291838 -10.26999799 180.30291838 -8.62017822 183.3611908 C-6.8628879 187.36061492 -6.73099061 191.15243771 -6.80371094 195.47094727 C-6.80476334 196.26878128 -6.80581573 197.0666153 -6.80690002 197.8886261 C-6.81049079 199.61116013 -6.82059136 201.33369059 -6.83657074 203.05615425 C-6.85972576 205.79540149 -6.86066933 208.53384641 -6.85528564 211.2731781 C-6.84266886 219.0580552 -6.85929854 226.84250602 -6.91552734 234.62719727 C-6.94844217 239.40127861 -6.94679121 244.17437215 -6.92450714 248.94849968 C-6.92277459 250.75396092 -6.93380353 252.55948688 -6.95861053 254.36477852 C-7.14273379 268.09735168 -5.17370704 278.40800255 4.0625 289.1875 C11.6173831 295.95255442 20.79763684 299.26746126 30.75488281 299.39282227 C31.43821686 299.40272186 32.1215509 299.41262146 32.82559204 299.42282104 C35.07640154 299.45432044 37.32723211 299.47914752 39.578125 299.50390625 C41.14183083 299.52448577 42.70553122 299.54548251 44.26922607 299.56687927 C48.37910551 299.62199686 52.48903428 299.67145148 56.59899902 299.71972656 C61.53335959 299.77886354 66.46763024 299.84503462 71.4019165 299.91002655 C78.89288928 300.00790628 86.38392051 300.09685099 93.875 300.1875 C93.875 310.7475 93.875 321.3075 93.875 332.1875 C89.74170166 332.20151855 89.74170166 332.20151855 85.52490234 332.21582031 C76.41644629 332.24960084 67.30821654 332.30515587 58.19994164 332.37140274 C52.67804152 332.41089694 47.15630133 332.44307601 41.63427734 332.45849609 C36.30430914 332.4736497 30.97478058 332.50807265 25.64500809 332.55580902 C23.6125127 332.57063611 21.57995454 332.57854177 19.54740524 332.57938385 C16.6982827 332.58175122 13.85037739 332.60881267 11.00146484 332.64160156 C10.16276855 332.6365712 9.32407227 332.63154083 8.45996094 332.62635803 C3.15299713 332.72073366 0.08313398 333.65685389 -4.125 337.1875 C-5.85369779 340.64489557 -5.61466895 344.40725568 -5.125 348.1875 C-3.33106332 351.05779869 -2.14236724 352.67881638 0.875 354.1875 C3.80341546 354.31036155 6.70956398 354.37327144 9.63916016 354.39282227 C10.54653427 354.40272186 11.45390839 354.41262146 12.38877869 354.42282104 C15.3971798 354.45448609 18.40559673 354.47921324 21.4140625 354.50390625 C23.49629128 354.52447146 25.57851584 354.54546781 27.66073608 354.56687927 C33.14832145 354.6221447 38.63594476 354.67153424 44.12359619 354.71972656 C49.72045276 354.76990897 55.31725404 354.82561203 60.9140625 354.88085938 C71.90099624 354.98849564 82.8879768 355.08941847 93.875 355.1875 C93.875 365.0875 93.875 374.9875 93.875 385.1875 C80.26156754 385.23278985 66.6481856 385.26943867 53.03469467 385.29112434 C46.7125543 385.30153543 40.3904684 385.31564561 34.06835938 385.33837891 C27.96050739 385.36020286 21.85270763 385.37208873 15.74481964 385.37725449 C13.42138091 385.38093314 11.09794484 385.38811639 8.7745285 385.39896011 C5.50554864 385.41360205 2.23678112 385.41547266 -1.03222656 385.41455078 C-1.98026154 385.42174133 -2.92829651 385.42893188 -3.90505981 385.43634033 C-18.14265215 385.39324921 -28.3125707 382.94568859 -38.8125 373.125 C-49.76799513 362.08650869 -52.43193346 349.51998553 -52.39242554 334.54414368 C-52.39695665 333.2805794 -52.40148776 332.01701513 -52.40615618 330.71516103 C-52.41834312 327.22381938 -52.41813083 323.73257387 -52.41576743 320.24121583 C-52.41535817 316.46941485 -52.42640891 312.69764425 -52.43588257 308.92585754 C-52.4524703 301.54178636 -52.45799112 294.15774711 -52.45910732 286.77365885 C-52.46005893 280.76852153 -52.46417487 274.76339472 -52.47050858 268.75826073 C-52.48811555 251.7167404 -52.49734839 234.67524522 -52.49584763 217.63371573 C-52.49576772 216.71568573 -52.4956878 215.79765573 -52.49560547 214.85180664 C-52.49552371 213.93265011 -52.49544195 213.01349358 -52.49535771 212.06648382 C-52.49454515 197.17685431 -52.5136767 182.28732604 -52.5418822 167.3977258 C-52.57064308 152.09364461 -52.58442071 136.78961274 -52.58269465 121.48550385 C-52.58203182 112.89969397 -52.58747721 104.3139902 -52.60905075 95.72820473 C-52.62730485 88.41684842 -52.63157536 81.10564633 -52.6180319 73.79427705 C-52.61152325 70.06803766 -52.61130816 66.34209375 -52.6287384 62.61588287 C-52.64748857 58.56562565 -52.63485985 54.51604596 -52.61947632 50.46577454 C-52.62976344 49.30290446 -52.64005057 48.14003439 -52.65064943 46.94192582 C-52.53736757 33.38392362 -48.62021173 21.99814149 -39.17578125 12.15625 C-27.84971605 1.65349406 -15.01202768 -0.29041125 0 0 Z " fill="#FCFDFD" transform="translate(420.125,336.8125)"/>
<path d="M0 0 C2.22014467 3.330217 2.2520724 4.36580934 2.26006222 8.24671555 C2.2706606 9.88770395 2.2706606 9.88770395 2.2814731 11.56184363 C2.27905802 12.76852203 2.27664293 13.97520042 2.27415466 15.21844482 C2.27939134 16.49674361 2.28462802 17.77504239 2.29002339 19.09207749 C2.30423533 22.64785695 2.30586607 26.20354913 2.30542648 29.75935292 C2.30707203 33.59195221 2.32013423 37.42451525 2.33161926 41.25709534 C2.35449553 49.64402047 2.36239374 58.03092033 2.36744571 66.41787243 C2.37070184 71.6578808 2.3772241 76.89788183 2.3844471 82.13788605 C2.40402201 96.65255879 2.42041914 111.16722468 2.42332363 125.68191147 C2.4235112 126.61133022 2.42369877 127.54074897 2.42389202 128.49833192 C2.42425827 130.38246202 2.42462197 132.26659213 2.42498314 134.15072224 C2.42516595 135.08598878 2.42534876 136.02125533 2.42553711 136.98486328 C2.42580793 138.38948202 2.42580793 138.38948202 2.42608423 139.82247689 C2.42962074 154.97298796 2.45660633 170.12335643 2.494035 185.27381811 C2.53217598 200.83765392 2.55148156 216.40141914 2.55178314 231.96530271 C2.55236667 240.69994942 2.56078961 249.43442637 2.58978081 258.16902924 C2.61437306 265.61258784 2.62152547 273.05591486 2.60653328 280.49950317 C2.59939438 284.29285091 2.60008931 288.08574214 2.62294388 291.87903786 C2.82669454 327.89648579 2.82669454 327.89648579 -9.41015625 341.55859375 C-16.29963631 348.05320165 -23.82948284 352.6440922 -33 355 C-33.99 355.33 -34.98 355.66 -36 356 C-38.86539959 356.09837071 -41.7064526 356.13904086 -44.57200623 356.13371277 C-45.4578781 356.13597833 -46.34374997 356.13824388 -47.25646645 356.14057809 C-50.23666457 356.14692832 -53.21681733 356.14608807 -56.19702148 356.14526367 C-58.32887837 356.1482545 -60.46073471 356.15165686 -62.59259033 356.15544128 C-68.39208597 356.16429269 -74.19156686 356.16661986 -79.9910686 356.16725707 C-84.82729247 356.16820523 -89.66351288 356.17188241 -94.49973541 356.17542917 C-105.90615676 356.18357788 -117.31257022 356.186013 -128.71899414 356.18530273 C-140.49838434 356.18470166 -152.27772878 356.19525848 -164.05710739 356.2110464 C-174.15990905 356.22410633 -184.26269572 356.22948729 -194.36550575 356.22884732 C-200.40410695 356.2285919 -206.44266749 356.2314674 -212.4812603 356.24202538 C-218.15864459 356.25168048 -223.83594914 356.25180336 -229.51333618 356.24450874 C-231.59992145 356.24345971 -233.68651162 356.24584457 -235.77308846 356.2518692 C-238.61582387 356.25954706 -241.45828102 356.25497231 -244.30101013 356.24723816 C-245.13164819 356.25238172 -245.96228624 356.25752529 -246.81809515 356.26282471 C-251.00898069 356.23753239 -253.15816581 355.9209171 -257 354 C-219.38 354.33 -181.76 354.66 -143 355 C-143 345.1 -143 335.2 -143 325 C-145.7858252 325.02618408 -148.57165039 325.05236816 -151.44189453 325.0793457 C-160.64990268 325.16222277 -169.85792737 325.21743498 -179.06620979 325.25906086 C-184.64883287 325.28514589 -190.23107356 325.32052468 -195.81347656 325.37719727 C-201.20162587 325.43155499 -206.58940755 325.46142877 -211.97780991 325.47438622 C-214.03273175 325.48361926 -216.08763365 325.50164945 -218.14239883 325.52865028 C-221.02261965 325.5649902 -223.90132481 325.56994323 -226.78173828 325.56762695 C-227.62978531 325.58560333 -228.47783234 325.60357971 -229.35157776 325.62210083 C-233.54525306 325.58564941 -236.1911954 325.27237712 -239.51364136 322.58952332 C-243.1903519 318.76025769 -243.34296519 316.39454943 -243.28515625 311.2578125 C-242.85933373 307.88623144 -241.46522826 306.25979257 -239 304 C-235.09022657 301.24927204 -230.68047589 301.73401737 -226.10058594 301.77294922 C-225.20267334 301.77265717 -224.30476074 301.77236511 -223.37963867 301.77206421 C-220.41445217 301.77345652 -217.44951756 301.7890132 -214.484375 301.8046875 C-212.4274306 301.80841798 -210.37048441 301.81126479 -208.3135376 301.81326294 C-202.90152067 301.82089665 -197.48961121 301.84054296 -192.07763672 301.8626709 C-186.55437677 301.88313492 -181.03109944 301.89226585 -175.5078125 301.90234375 C-164.67182021 301.92378905 -153.83593585 301.95896913 -143 302 C-143 291.44 -143 280.88 -143 270 C-138.42125 269.98582031 -133.8425 269.97164062 -129.125 269.95703125 C-126.1900306 269.93692767 -123.25521144 269.91536683 -120.3203125 269.88867188 C-115.68190806 269.8466175 -111.04388533 269.809392 -106.40527344 269.80444336 C-102.65715426 269.80010247 -98.90989665 269.77117329 -95.16204834 269.72656822 C-93.74628762 269.71377495 -92.33042278 269.7092194 -90.91461182 269.71384621 C-77.94079514 269.74630842 -63.95445957 267.82532023 -53.83203125 258.9609375 C-48.04042863 252.7618234 -43.75141076 245.98674636 -43.7484436 237.34521484 C-43.74306076 236.21807068 -43.73767792 235.09092651 -43.73213196 233.92962646 C-43.73831795 232.08887543 -43.73831795 232.08887543 -43.74462891 230.2109375 C-43.73907158 228.21595748 -43.73350992 226.22097747 -43.72778487 224.22599792 C-43.72345065 222.086625 -43.72391309 219.94729854 -43.72560501 217.80792236 C-43.72844247 213.34502713 -43.71407073 208.88228963 -43.69662476 204.41943359 C-43.64963692 191.73081822 -43.62565297 179.04221417 -43.61914062 166.35351562 C-43.61538988 159.3414274 -43.59736195 152.32951825 -43.56404626 145.31750679 C-43.54383487 140.88223655 -43.54146007 136.44742824 -43.55232644 132.01213074 C-43.55554645 128.60433773 -43.53284208 125.19680406 -43.51416016 121.7890625 C-43.52641884 119.94831146 -43.52641884 119.94831146 -43.53892517 118.07037354 C-43.45728992 109.72247004 -43.45728992 109.72247004 -41.03036499 105.88818359 C-40.36034454 105.26508301 -39.6903241 104.64198242 -39 104 C-37.99740493 100.99221479 -37.69685358 98.46179353 -37.4375 95.3125 C-37.35371094 94.31863281 -37.26992188 93.32476562 -37.18359375 92.30078125 C-37.12300781 91.54152344 -37.06242188 90.78226562 -37 90 C-32.82795411 92.26112706 -29.57141642 95.09370207 -26.25 98.4375 C-25.75628906 98.91509766 -25.26257813 99.39269531 -24.75390625 99.88476562 C-22.12676116 102.50831189 -20.66714695 104.34737047 -20 108 C-18.34302621 108.69040574 -16.6744239 109.3530635 -15 110 C-12.1875 112.5 -12.1875 112.5 -10 115 C-10 115.66 -10 116.32 -10 117 C-8.68 117.66 -7.36 118.32 -6 119 C-4.02 121.31 -2.04 123.62 0 126 C0 84.42 0 42.84 0 0 Z " fill="#AEE0F7" transform="translate(657,367)"/>
<path d="M0 0 C9.37747913 6.8757691 15.83102261 15.40322408 19.515625 26.45703125 C19.62174866 28.99687545 19.67668729 31.51428747 19.69140625 34.0546875 C19.71462737 35.59441437 19.7387456 37.13412792 19.76367188 38.67382812 C19.79857819 41.08724591 19.82801648 43.5001805 19.84155273 45.91381836 C19.92219136 57.95378526 20.57569085 68.18831421 29.1953125 77.4609375 C32.1025701 79.96196213 35.26027435 81.95078209 38.515625 83.95703125 C49.89009861 91.0040149 49.89009861 91.0040149 52.515625 96.45703125 C53.15901181 101.45093837 52.29271763 105.17080896 49.703125 109.45703125 C45.91876968 112.91701326 43.0954126 113.70667613 37.99455261 113.75137329 C36.87167343 113.7656839 35.74879425 113.77999451 34.59188843 113.79473877 C32.75045761 113.80280548 32.75045761 113.80280548 30.87182617 113.81103516 C28.9273484 113.83074875 28.9273484 113.83074875 26.94358826 113.8508606 C22.64864007 113.89285217 18.35369116 113.91365454 14.05859375 113.93359375 C12.57782734 113.94169177 11.09706167 113.9499257 9.61629677 113.95829391 C2.65965817 113.99637517 -4.29693824 114.0248436 -11.25366098 114.04151785 C-19.27577021 114.0610652 -27.29677608 114.1137159 -35.31849653 114.19451964 C-41.52501402 114.25488702 -47.73121556 114.28445948 -53.93802088 114.29107988 C-57.64260323 114.29577558 -61.34600539 114.31361859 -65.05027199 114.36400223 C-69.18501617 114.41933536 -73.31730149 114.4108904 -77.45239258 114.39697266 C-78.67394043 114.42259277 -79.89548828 114.44821289 -81.15405273 114.47460938 C-89.19534211 114.37589933 -89.19534211 114.37589933 -92.81848717 111.79319382 C-96.25477283 108.11360276 -97.8406759 105.41438837 -98.171875 100.33203125 C-97.78850508 95.68899555 -96.72068678 92.93014633 -93.484375 89.45703125 C-89.95582194 86.76035711 -86.22265255 84.44804188 -82.3671875 82.25 C-74.21782017 77.50941473 -69.14316761 71.61075722 -66.484375 62.45703125 C-66.22621132 59.69514116 -66.0887199 57.15734206 -66.11328125 54.40625 C-66.09589464 52.88736759 -66.0783103 51.36848743 -66.06054688 49.84960938 C-66.05051956 47.50003757 -66.04687056 45.15061762 -66.04858398 42.80102539 C-66.02406753 27.22654032 -63.28936322 16.98571713 -52.48828125 5.296875 C-38.86978349 -8.07174207 -16.2039271 -10.06375975 0 0 Z " fill="#FBFDFD" transform="translate(536.484375,270.54296875)"/>
<path d="M0 0 C0.11701686 17.03789417 0.20507763 34.07566219 0.25906086 51.11386681 C0.28479712 59.02575523 0.31985933 66.93739336 0.37719727 74.84912109 C0.42717331 81.7483375 0.45932428 88.64737257 0.47044247 95.54676497 C0.47693742 99.19701769 0.49210489 102.8467518 0.52865028 106.49683762 C0.5692031 110.58064114 0.56994039 114.66355414 0.56762695 118.74755859 C0.59459152 120.54507568 0.59459152 120.54507568 0.62210083 122.37890625 C0.56127676 132.32918918 -2.47739792 140.09127302 -9.296875 147.41015625 C-20.09848261 157.49330831 -33.59378614 159.61652652 -47.9309082 159.50170898 C-49.24498154 159.50711197 -50.55905487 159.51251495 -51.91294861 159.51808167 C-55.47063509 159.53187371 -59.02782921 159.52098624 -62.5854876 159.50437045 C-66.33150497 159.49037471 -70.07749792 159.49699581 -73.8235321 159.50050354 C-80.1048463 159.50319265 -86.38596796 159.48983705 -92.66723633 159.46655273 C-99.90878402 159.43989304 -107.15001134 159.43821912 -114.39159137 159.4499411 C-121.39259929 159.46074841 -128.39349237 159.45451244 -135.3944912 159.44038582 C-138.35958794 159.43465739 -141.32459977 159.43468359 -144.28969765 159.43945122 C-148.43199508 159.44514384 -152.57382038 159.4258324 -156.71606445 159.40405273 C-157.93341278 159.40855438 -159.15076111 159.41305603 -160.40499878 159.41769409 C-172.39552026 159.31319308 -181.30130858 156.19176342 -190.16796875 147.99609375 C-200.96577595 136.67156424 -201.71093011 125.63985559 -201.48828125 110.76953125 C-201.47893878 108.92438217 -201.47182946 107.07922056 -201.46684265 105.23405457 C-201.44788552 100.41202669 -201.39888413 95.59076944 -201.34332275 90.76904297 C-201.29188473 85.83506693 -201.26927651 80.9009646 -201.24414062 75.96679688 C-201.19075273 66.31086205 -201.10557923 56.65549547 -201 47 C-197.01668588 50.35482662 -193.13958449 53.73719214 -189.484375 57.453125 C-188.70835937 58.236875 -187.93234375 59.020625 -187.1328125 59.828125 C-185.95332031 61.02695312 -185.95332031 61.02695312 -184.75 62.25 C-183.1638093 63.86169215 -181.57536578 65.4711711 -179.984375 67.078125 C-179.29053711 67.78356445 -178.59669922 68.48900391 -177.88183594 69.21582031 C-175.92352725 71.17371259 -175.92352725 71.17371259 -173 73 C-173.33 92.14 -173.66 111.28 -174 131 C-125.49 131 -76.98 131 -27 131 C-27.44783349 95.87599797 -27.44783349 95.87599797 -27.9284668 60.75244141 C-28.00549316 53.96948242 -28.00549316 53.96948242 -28.03767395 50.79721069 C-28.06308982 48.57472819 -28.09449659 46.35230944 -28.13056946 44.12997437 C-28.18396194 40.7697507 -28.21852536 37.40981711 -28.2487793 34.04931641 C-28.26894198 33.05409784 -28.28910467 32.05887928 -28.30987835 31.03350258 C-28.31414239 30.13231886 -28.31840643 29.23113514 -28.32279968 28.30264282 C-28.33293941 27.51543161 -28.34307913 26.72822041 -28.35352612 25.91715431 C-28.2368625 25.28449339 -28.12019888 24.65183247 -28 24 C-25 22 -25 22 -22 22 C-21.75378906 21.42926758 -21.50757813 20.85853516 -21.25390625 20.27050781 C-19.79101003 17.6215719 -18.07354681 15.81451454 -15.9375 13.671875 C-15.14085937 12.87265625 -14.34421875 12.0734375 -13.5234375 11.25 C-12.69070313 10.425 -11.85796875 9.6 -11 8.75 C-10.16726563 7.90953125 -9.33453125 7.0690625 -8.4765625 6.203125 C-7.67992187 5.4090625 -6.88328125 4.615 -6.0625 3.796875 C-4.96615234 2.70391113 -4.96615234 2.70391113 -3.84765625 1.58886719 C-2 0 -2 0 0 0 Z " fill="#2A597B" transform="translate(614,478)"/>
<path d="M0 0 C0 34.98 0 69.96 0 106 C-48.51 106 -97.02 106 -147 106 C-147 86.86 -147 67.72 -147 48 C-143.66575457 49.66712272 -142.19085345 50.56987988 -139.73535156 53.10107422 C-138.81354095 54.04247757 -138.81354095 54.04247757 -137.87310791 55.00289917 C-137.21888855 55.67998932 -136.56466919 56.35707947 -135.890625 57.0546875 C-134.48205504 58.48856049 -133.07319152 59.92214516 -131.6640625 61.35546875 C-129.457207 63.61183389 -127.2536578 65.87123069 -125.05566406 68.13623047 C-122.92629174 70.32637364 -120.7843566 72.50360985 -118.640625 74.6796875 C-117.99450256 75.35272919 -117.34838013 76.02577087 -116.68267822 76.71920776 C-111.95276483 81.5000858 -107.0528406 85.2518739 -100.3125 86.49609375 C-99.549375 86.47675781 -98.78625 86.45742188 -98 86.4375 C-96.8553125 86.43556641 -96.8553125 86.43556641 -95.6875 86.43359375 C-86.14035654 84.89328427 -81.49069117 80.09472887 -75 73.25 C-73.29407831 71.48204479 -71.58577826 69.71638112 -69.875 67.953125 C-69.12992188 67.17098633 -68.38484375 66.38884766 -67.6171875 65.58300781 C-65.62436273 63.61620874 -63.63299853 61.81039527 -61.50756836 59.9987793 C-56.01176664 55.2348545 -50.93521892 50.04655161 -45.81375313 44.88891792 C-43.97118726 43.0334583 -42.12540109 41.18125528 -40.27879333 39.32981873 C-36.37052295 35.41020186 -32.46624157 31.48662665 -28.5625 27.5625 C-24.01266348 22.9890669 -19.46120909 18.41726793 -14.90556145 13.84962273 C-13.08372211 12.02128389 -11.26490759 10.18997151 -9.44618225 8.35853577 C-8.34000034 7.24872489 -7.2336798 6.13905217 -6.12719727 5.02954102 C-5.61971954 4.51689697 -5.11224182 4.00425293 -4.58938599 3.47607422 C-1.11384324 0 -1.11384324 0 0 0 Z " fill="#ABDFF6" transform="translate(587,503)"/>
<path d="M0 0 C40.92 0 81.84 0 124 0 C120.27006521 4.35159059 116.69326297 8.43252226 112.67236328 12.45703125 C112.17715179 12.95399506 111.68194031 13.45095886 111.17172241 13.96298218 C109.55706688 15.58198778 107.93884155 17.19736749 106.3203125 18.8125 C105.18205442 19.95143319 104.0439447 21.09051466 102.90597534 22.22973633 C100.52894389 24.60823559 98.15013029 26.98493381 95.77001953 29.36035156 C92.7385823 32.38609863 89.71164897 35.41630522 86.68605232 38.44789124 C84.33882292 40.79875666 81.98918915 43.14720742 79.63885117 45.4949646 C78.52270251 46.61045204 77.40727986 47.72666648 76.29263687 48.84365845 C70.85897202 54.28626022 65.42606794 59.67530471 59.54901123 64.64637756 C57.52814379 66.41233733 55.81822454 68.35945171 54.125 70.4375 C52.4453125 72.49609375 52.4453125 72.49609375 51 74 C50.34 74 49.68 74 49 74 C47.52323914 72.5019989 47.52323914 72.5019989 45.8190918 70.44799805 C42.3535638 66.37472019 38.70023075 62.58574868 34.89453125 58.83203125 C34.24804123 58.18932785 33.60155121 57.54662445 32.93547058 56.88444519 C30.89692842 54.85797899 28.8551463 52.83482868 26.8125 50.8125 C24.10774729 48.13444207 21.40639796 45.45301672 18.70703125 42.76953125 C18.09342239 42.16422073 17.47981354 41.55891022 16.84761047 40.93525696 C14.41601212 38.51756156 12.14749593 36.19582942 10.08081055 33.4519043 C7.3503599 30.05083918 7.3503599 30.05083918 0 25 C0 16.75 0 8.5 0 0 Z " fill="#FCFDFD" transform="translate(440,465)"/>
<path d="M0 0 C1.16198914 -0.00571014 2.32397827 -0.01142029 3.5211792 -0.01730347 C4.78724503 -0.01842133 6.05331085 -0.01953918 7.35774231 -0.02069092 C8.71169672 -0.02532303 10.06564983 -0.03034821 11.41960144 -0.03573608 C15.09134683 -0.04882593 18.76307395 -0.05529858 22.43483901 -0.05974674 C24.73234217 -0.06268353 27.02984041 -0.06678951 29.32734108 -0.07125092 C36.52586918 -0.08491805 43.72438595 -0.09458803 50.92292613 -0.09845281 C59.21341212 -0.10292908 67.50373288 -0.12046019 75.79416865 -0.1494534 C82.21475819 -0.17112252 88.63530141 -0.1811599 95.0559271 -0.18249393 C98.884794 -0.18353839 102.71350542 -0.18936917 106.5423336 -0.20731354 C110.14818132 -0.2238846 113.75375818 -0.22590639 117.35963058 -0.21717453 C119.29952731 -0.21604636 121.23941541 -0.22969449 123.17926025 -0.243927 C130.35460847 -0.20994944 136.46025656 0.59521735 143.18904114 3.14044189 C141.59811856 4.20105695 140.00717951 5.26164731 138.4161129 6.32204628 C134.51843362 9.06920047 131.45097003 11.85856337 128.49339294 15.60977173 C122.69518855 22.79071882 117.21705427 29.10332455 107.75904846 30.68713379 C100.87196136 31.28853368 94.02061976 31.08829486 87.1228137 30.76360369 C83.66878136 30.62088435 80.21346722 30.58412201 76.75706482 30.5350647 C70.24137097 30.42701014 63.73207806 30.2267452 57.21987402 29.99140203 C49.7941458 29.72767927 42.36727016 29.56965112 34.93851352 29.41950917 C19.68394477 29.10888127 4.43830545 28.65485085 -10.81095886 28.14044189 C-10.81095886 36.06044189 -10.81095886 43.98044189 -10.81095886 52.14044189 C-13.12095886 52.03731689 -15.43095886 51.93419189 -17.81095886 51.82794189 C-24.47481973 51.70030096 -28.74137477 52.78280908 -33.81095886 57.14044189 C-35.14092769 58.14491225 -36.47390158 59.14542652 -37.81095886 60.14044189 C-37.88585162 56.03286227 -37.9399064 51.92555429 -37.97575378 47.81744385 C-37.99071824 46.42381861 -38.01109737 45.03023946 -38.03727722 43.63677979 C-38.25926505 31.50579771 -37.05604038 21.55149454 -28.81095886 12.14044189 C-20.08659916 4.60038441 -11.65080749 0.03440139 0 0 Z " fill="#548BAD" transform="translate(450.8109588623047,436.85955810546875)"/>
<path d="M0 0 C1.12689526 -0.00573832 1.12689526 -0.00573832 2.27655607 -0.01159257 C4.7953274 -0.021916 7.31387048 -0.0179317 9.83265686 -0.01396179 C11.63792126 -0.01830862 13.44318381 -0.02349168 15.2484436 -0.02944946 C20.15336546 -0.04285361 25.05821032 -0.04341657 29.96314692 -0.04088616 C34.0562183 -0.03981744 38.14927403 -0.04469727 42.24234205 -0.04949158 C51.89745886 -0.0605916 61.55253676 -0.06102135 71.20765686 -0.05497742 C81.17220503 -0.04893576 91.13661206 -0.06125239 101.10113615 -0.08254749 C109.65325031 -0.10015292 118.2053195 -0.10616653 126.75745112 -0.10290974 C131.86661875 -0.1010951 136.97568571 -0.10375112 142.08483696 -0.11762428 C146.88898107 -0.13018084 151.69290487 -0.12827912 156.49704552 -0.11521339 C158.2606997 -0.11284335 160.02436929 -0.11559759 161.78800583 -0.12383652 C164.19478366 -0.13426961 166.6008175 -0.12623143 169.00756836 -0.11352539 C169.70621016 -0.12089968 170.40485196 -0.12827396 171.12466472 -0.13587171 C175.44271151 -0.08788189 178.11848755 0.649066 181.567276 3.26069641 C183.69465738 5.97494162 184.49637162 7.78462411 185.004776 11.19819641 C184.34866678 15.79096093 182.15523317 18.69455245 178.89314842 21.91182709 C175.67688661 23.77706993 172.71895984 23.68246589 169.10331726 23.65510559 C168.34867577 23.66119669 167.59403428 23.6672878 166.81652486 23.67356348 C164.28618636 23.6902212 161.75634955 23.68541381 159.22596741 23.68061829 C157.41247026 23.68795706 155.59897778 23.69654272 153.78549194 23.70628357 C148.8577559 23.72852949 143.93018692 23.73142868 139.00240755 23.72953606 C134.88953899 23.72941649 130.77670601 23.73797514 126.66384733 23.74631357 C116.96073439 23.76555905 107.25770749 23.76842743 97.55458069 23.76167297 C87.54338071 23.75503229 77.53254918 23.77789507 67.52142394 23.81498671 C58.92766844 23.84567208 50.33403153 23.85704496 41.74022233 23.85314989 C36.60691574 23.85108105 31.47389577 23.85658245 26.34064102 23.88104248 C21.51256698 23.90328758 16.68509226 23.90145042 11.85701561 23.88111496 C10.0857147 23.87770085 8.31437363 23.88281127 6.54312706 23.89709854 C4.12311901 23.91527079 1.70514851 23.90255937 -0.71479797 23.88215637 C-1.76422783 23.90093314 -1.76422783 23.90093314 -2.8348583 23.92008924 C-8.38479968 23.81989324 -10.66293603 22.03929345 -14.432724 18.26069641 C-16.16397521 14.79819398 -15.91087624 11.04661412 -15.432724 7.26069641 C-11.55399923 0.74997983 -7.17423644 -0.03868573 0 0 Z " fill="#2A587B" transform="translate(429.43272399902344,668.7393035888672)"/>
<path d="M0 0 C3.98331412 3.35482662 7.86041551 6.73719214 11.515625 10.453125 C12.29164063 11.236875 13.06765625 12.020625 13.8671875 12.828125 C14.65351563 13.62734375 15.43984375 14.4265625 16.25 15.25 C17.8361907 16.86169215 19.42463422 18.4711711 21.015625 20.078125 C21.70946289 20.78356445 22.40330078 21.48900391 23.11816406 22.21582031 C25.07647275 24.17371259 25.07647275 24.17371259 28 26 C27.67 45.14 27.34 64.28 27 84 C75.51 84 124.02 84 174 84 C174 84.33 174 84.66 174 85 C125.985 85.495 125.985 85.495 77 86 C79.31 88.64 81.62 91.28 84 94 C84.98033203 95.39541016 85.96066406 96.79082031 86.97070312 98.22851562 C91.97094221 104.85922536 97.02230168 109.90447201 105.54156494 111.16731262 C114.38191622 112.10455762 123.2873128 111.83722017 132.1572876 111.56219482 C136.09266041 111.45771771 140.02829613 111.44604716 143.96484375 111.42578125 C151.64633545 111.37294634 159.32127266 111.21972204 167 111 C167 111.33 167 111.66 167 112 C149.42325986 112.07017838 131.84656364 112.12303134 114.26971531 112.15543652 C106.10790375 112.17088482 97.9461794 112.19193525 89.78442383 112.22631836 C82.66804139 112.25628325 75.55172213 112.2755898 68.43527836 112.28226548 C64.66951131 112.28616578 60.90392497 112.29528916 57.13821602 112.31719017 C53.58826569 112.33766759 50.03856923 112.34381129 46.48856544 112.33932304 C44.57585016 112.34053208 42.66316204 112.35661503 40.7505188 112.3732605 C28.67414609 112.33020438 19.76342358 109.25159693 10.83203125 100.99609375 C0.03422405 89.67156424 -0.71093011 78.63985559 -0.48828125 63.76953125 C-0.47893878 61.92438217 -0.47182946 60.07922056 -0.46684265 58.23405457 C-0.44788552 53.41202669 -0.39888413 48.59076944 -0.34332275 43.76904297 C-0.29188473 38.83506693 -0.26927651 33.9009646 -0.24414062 28.96679688 C-0.19075273 19.31086205 -0.10557923 9.65549547 0 0 Z " fill="#457C9E" transform="translate(413,525)"/>
<path d="M0 0 C1.67375954 -0.01929817 1.67375954 -0.01929817 3.3813324 -0.03898621 C4.59600693 -0.04279297 5.81068146 -0.04659973 7.06216431 -0.05052185 C8.34887527 -0.06205795 9.63558624 -0.07359406 10.96128845 -0.08547974 C14.48406417 -0.11591417 18.00677472 -0.13298499 21.52965498 -0.14569592 C23.73266676 -0.15379367 25.93566005 -0.16397454 28.13866043 -0.17471123 C35.03763728 -0.20740672 41.93656889 -0.23131696 48.83561265 -0.24352509 C56.78855743 -0.25778356 64.74061535 -0.30167713 72.69326627 -0.37102658 C78.84885197 -0.42284761 85.00418568 -0.44770113 91.15998614 -0.45234722 C94.83313289 -0.45574099 98.50538142 -0.47052825 102.17829514 -0.51362801 C106.27686077 -0.56088402 110.37350451 -0.55225632 114.47232056 -0.5388031 C116.28825966 -0.57184036 116.28825966 -0.57184036 118.1408844 -0.60554504 C123.83568882 -0.54200494 127.45082578 -0.37791359 131.64190674 3.71426392 C134.68301733 7.32434962 135.58537671 9.36517115 135.20913696 14.10011292 C134.70320158 18.59515424 133.82894957 21.14949853 130.39663696 24.28761292 C127.16247161 26.28517698 124.64927652 26.54888716 120.87556458 26.58195496 C119.75268539 26.59626556 118.62980621 26.61057617 117.47290039 26.62532043 C115.63146957 26.63338715 115.63146957 26.63338715 113.75283813 26.64161682 C112.45651962 26.65475922 111.16020111 26.66790161 109.82460022 26.68144226 C105.52965203 26.72343384 101.23470312 26.7442362 96.93960571 26.76417542 C95.45883931 26.77227344 93.97807364 26.78050737 92.49730873 26.78887558 C85.54067013 26.82695683 78.58407372 26.85542526 71.62735099 26.87209952 C63.60524175 26.89164687 55.58423589 26.94429756 47.56251544 27.0251013 C41.35599794 27.08546869 35.1497964 27.11504115 28.94299108 27.12166154 C25.23840873 27.12635725 21.53500657 27.14420025 17.83073997 27.19458389 C13.69599579 27.24991702 9.56371047 27.24147207 5.42861938 27.22755432 C4.20707153 27.25317444 2.98552368 27.27879456 1.72695923 27.30519104 C-6.31433015 27.206481 -6.31433015 27.206481 -9.9374752 24.62377548 C-13.37445662 20.94343942 -14.95748817 18.24530849 -15.29086304 13.16261292 C-14.94052774 8.608254 -13.75781955 5.69783617 -10.60336304 2.28761292 C-6.97880323 0.48937162 -4.02197586 0.03014399 0 0 Z " fill="#82CCF4" transform="translate(453.6033630371094,357.71238708496094)"/>
<path d="M0 0 C5.03194942 4.45052669 8.41604683 9.78904878 9.3515625 16.53515625 C9.77651775 24.48629268 7.6757937 30.86145792 2.35546875 36.8515625 C-3.9872053 42.66448725 -10.45759233 44.66252223 -19 44.40625 C-25.77280471 43.48909936 -30.30425148 40.26590472 -34.4375 34.9375 C-35.33124662 33.65162523 -36.18806093 32.33903394 -37 31 C-37.37382812 30.40832031 -37.74765625 29.81664062 -38.1328125 29.20703125 C-40.36155464 23.5347821 -40.08566813 15.25195478 -38.16015625 9.484375 C-34.60242129 3.39909097 -29.04423302 -1.7269571 -22.5625 -4.4375 C-13.69004926 -5.83841327 -7.63237068 -5.15314823 0 0 Z " fill="#3A6483" transform="translate(529,290)"/>
<path d="M0 0 C73.755 0.495 73.755 0.495 149 1 C147.90260429 6.48697856 147.35725308 7.02431497 143 10 C140.43672802 11.28163599 138.59066982 11.14626695 135.71943665 11.17408752 C134.59930679 11.18702347 133.47917694 11.19995941 132.32510376 11.21328735 C130.47288712 11.22674698 130.47288712 11.22674698 128.58325195 11.24047852 C127.28722549 11.25347488 125.99119904 11.26647125 124.65589905 11.27986145 C112.69907379 11.39581606 100.74141379 11.45240745 88.78413105 11.49662876 C79.94645729 11.52986225 71.10980928 11.58940161 62.27257568 11.68413979 C56.05762919 11.7485117 49.84296187 11.78217172 43.62769479 11.79337829 C39.91633964 11.80093317 36.20622322 11.82206029 32.49523354 11.87640572 C28.35075359 11.93638163 24.20862537 11.932886 20.0637207 11.92407227 C18.22668579 11.96485901 18.22668579 11.96485901 16.35253906 12.00646973 C8.24635587 11.91754502 8.24635587 11.91754502 4.63976097 9.26243401 C0 4.20418594 0 4.20418594 0 0 Z " fill="#C5EBFA" transform="translate(439,373)"/>
<path d="M0 0 C3.39498823 3.39498823 6.6316653 6.77003493 9.83203125 10.33203125 C16.84404583 18.05379194 24.27695351 25.35144027 31.6875 32.6875 C34.40258293 35.37606043 37.1143579 38.06789624 39.82421875 40.76171875 C40.44592453 41.37512619 41.06763031 41.98853363 41.70817566 42.62052917 C43.1576955 44.06157629 44.5818067 45.52811268 46 47 C46 47.33 46 47.66 46 48 C30.82 48 15.64 48 0 48 C0 32.16 0 16.32 0 0 Z " fill="#FBFEFE" transform="translate(441,561)"/>
<path d="M0 0 C5.83315122 2.91657561 10.04453771 7.44343055 14.66552734 11.96533203 C15.80538899 13.07198435 16.95588962 14.16778248 18.11669922 15.25244141 C19.79801667 16.82418022 21.44393108 18.42641635 23.0859375 20.0390625 C23.60868256 20.51646881 24.13142761 20.99387512 24.67001343 21.48574829 C26.08740234 22.92041016 26.08740234 22.92041016 28 26 C27.79910443 28.97745974 27.02706222 31.14977766 26 34 C23 34 23 34 21.37768555 32.73413086 C20.8031665 32.15026611 20.22864746 31.56640137 19.63671875 30.96484375 C18.99669922 30.31966797 18.35667969 29.67449219 17.69726562 29.00976562 C17.03404297 28.32591797 16.37082031 27.64207031 15.6875 26.9375 C14.71006836 25.95233398 14.71006836 25.95233398 13.71289062 24.94726562 C9.59415515 20.76256441 5.84187884 16.48219198 2 12 C1.67 27.18 1.34 42.36 1 58 C0.67 58 0.34 58 0 58 C0 38.86 0 19.72 0 0 Z " fill="#A2D5EE" transform="translate(440,551)"/>
<path d="M0 0 C104.94 0.495 104.94 0.495 212 1 C212 1.66 212 2.32 212 3 C211.27039063 2.99476318 210.54078125 2.98952637 209.7890625 2.98413086 C206.19271896 2.9622087 202.59639308 2.94748279 199 2.9375 C197.99223511 2.9345845 197.99223511 2.9345845 196.96411133 2.93161011 C188.06565876 2.91397932 179.17658616 3.01672962 170.28125 3.2578125 C169.3843042 3.28208817 168.4873584 3.30636383 167.56323242 3.33137512 C163.13160976 3.45431759 158.70050953 3.5879369 154.26953125 3.73217773 C152.62760562 3.78113606 150.9856786 3.83004775 149.34375 3.87890625 C148.23296082 3.9194664 148.23296082 3.9194664 147.09973145 3.96084595 C144.01338966 4.04926647 141.11902758 4.02007917 138.0700531 3.5057373 C132.38579741 2.65585021 126.63759984 2.86968736 120.90454102 2.88647461 C118.94254005 2.88625557 118.94254005 2.88625557 116.94090271 2.8860321 C113.37116924 2.88574629 109.80146967 2.89160809 106.23174405 2.89860606 C102.49482475 2.90487557 98.75790459 2.90544624 95.02098083 2.90663147 C87.95217942 2.9097342 80.88339356 2.91793329 73.81459898 2.92798096 C65.763806 2.939175 57.71301227 2.94466083 49.66221344 2.94967639 C33.10813321 2.96011682 16.55406859 2.97769571 0 3 C0 2.01 0 1.02 0 0 Z " fill="#2E5D7F" transform="translate(387,760)"/>
<path d="M0 0 C17.95061828 -0.07019756 35.90120075 -0.1230407 53.8519268 -0.15543652 C62.18746413 -0.17088077 70.52291598 -0.19192339 78.85839844 -0.22631836 C86.12677766 -0.25629571 93.39509495 -0.27559274 100.66353428 -0.28226548 C104.50925627 -0.28616368 108.35480114 -0.29527354 112.20046616 -0.31719017 C115.82675033 -0.33768736 119.45278593 -0.34380736 123.07912254 -0.33932304 C125.03100648 -0.34053041 126.9828639 -0.35660286 128.93467712 -0.3732605 C136.13181694 -0.34817759 142.25211571 0.4411443 149 3 C146 5 146 5 143 5 C142.67 4.34 142.34 3.68 142 3 C138.75591288 3 135.51190036 3.00793696 132.26782227 3.01586914 C122.36605695 3.03874477 112.46428689 3.05307332 102.5625 3.0625 C101.66785034 3.06335602 100.77320068 3.06421204 99.85144043 3.06509399 C66.22390161 3.09346368 32.61974681 2.73373623 -1 2 C-0.67 1.34 -0.34 0.68 0 0 Z " fill="#6C95AF" transform="translate(445,437)"/>
<path d="M0 0 C1.40119835 0.24114784 1.40119835 0.24114784 2.83070374 0.48716736 C7.78094276 1.18932121 12.71671972 1.17614484 17.70874023 1.20532227 C18.76314804 1.21522186 19.81755585 1.22512146 20.90391541 1.23532104 C24.37211906 1.26678508 27.84033639 1.29163358 31.30859375 1.31640625 C33.71997931 1.33698882 36.13136137 1.35798563 38.54273987 1.37937927 C44.87691402 1.43446534 51.21112001 1.48393384 57.54534912 1.53222656 C64.01398539 1.58254009 70.48257566 1.63817466 76.95117188 1.69335938 C89.63407499 1.80077619 102.31701744 1.90243832 115 2 C115 2.66 115 3.32 115 4 C91.24 4 67.48 4 43 4 C43 4.66 43 5.32 43 6 C42.29367432 5.83935059 41.58734863 5.67870117 40.85961914 5.51318359 C37.93821796 4.98891267 35.21197366 4.84185599 32.24609375 4.7890625 C31.14330078 4.76070312 30.04050781 4.73234375 28.90429688 4.703125 C26.62059347 4.65166126 24.33671949 4.60721474 22.05273438 4.5703125 C14.34226848 4.35576041 7.39841151 3.18000149 0 1 C0 0.67 0 0.34 0 0 Z " fill="#113348" transform="translate(397,721)"/>
<path d="M0 0 C73.755 0.495 73.755 0.495 149 1 C148.67 2.65 148.34 4.3 148 6 C147.34 6.33 146.68 6.66 146 7 C145.67 5.68 145.34 4.36 145 3 C97.15 3 49.3 3 0 3 C0 2.01 0 1.02 0 0 Z " fill="#A9DEF7" transform="translate(439,373)"/>
<path d="M0 0 C1.09933868 -0.00137466 2.19867737 -0.00274933 3.33132935 -0.00416565 C4.53254425 -0.00057037 5.73375916 0.0030249 6.97137451 0.00672913 C8.87419693 0.00651009 8.87419693 0.00651009 10.81546021 0.00628662 C14.29033331 0.00599977 17.76517188 0.01187835 21.24003696 0.01886058 C24.8728728 0.02511282 28.50570942 0.0256994 32.1385498 0.02688599 C39.01620508 0.02999378 45.89384445 0.03819974 52.77149272 0.04823548 C60.60214771 0.05941373 68.43280347 0.06491138 76.26346445 0.06993091 C92.37021201 0.0803828 108.47694357 0.09797158 124.5836792 0.12025452 C124.5836792 0.45025452 124.5836792 0.78025452 124.5836792 1.12025452 C123.60107605 1.12521974 123.60107605 1.12521974 122.59862232 1.13028526 C106.65745385 1.21151473 90.71639071 1.30360699 74.77535725 1.4077816 C67.06638382 1.45789791 59.35742099 1.50434094 51.64837646 1.54212952 C44.9289732 1.57507635 38.20965229 1.61492243 31.49033993 1.66304457 C27.93269948 1.68828285 24.37511347 1.71007197 20.81740761 1.72359848 C16.84527467 1.73882994 12.87334161 1.76946483 8.90130615 1.80140686 C7.722388 1.80356705 6.54346985 1.80572723 5.3288269 1.80795288 C3.70299934 1.8246981 3.70299934 1.8246981 2.04432678 1.84178162 C1.10501973 1.84731237 0.16571268 1.85284313 -0.80205822 1.85854149 C-3.68356909 2.14700866 -5.82803523 2.83188412 -8.4163208 4.12025452 C-9.11569612 5.4367257 -9.78361213 6.77047603 -10.4163208 8.12025452 C-12.5413208 9.37025452 -12.5413208 9.37025452 -14.4163208 10.12025452 C-12.45857432 3.34343978 -12.45857432 3.34343978 -9.4163208 1.12025452 C-6.24079844 0.09953176 -3.32279386 -0.00320733 0 0 Z " fill="#8CC7E7" transform="translate(453.41632080078125,357.87974548339844)"/>
<path d="M0 0 C0.33 0.99 0.66 1.98 1 3 C1.62175802 2.99723462 2.24351604 2.99446924 2.88411522 2.99162006 C17.99795524 2.9254286 33.11175094 2.87575285 48.22569847 2.84456348 C55.53463311 2.82908046 62.84347112 2.80796372 70.15234375 2.77368164 C76.52117495 2.74382299 82.88993619 2.72443544 89.25883543 2.71773452 C92.63258943 2.7138162 96.00614325 2.70457831 99.37983322 2.68280983 C103.14185411 2.66116448 106.90345463 2.6580277 110.66552734 2.65942383 C112.35190056 2.64324509 112.35190056 2.64324509 114.07234192 2.6267395 C115.09320389 2.63086349 116.11406586 2.63498749 117.16586304 2.63923645 C118.50154107 2.63508838 118.50154107 2.63508838 119.8642025 2.63085651 C120.56901567 2.75267386 121.27382885 2.87449121 122 3 C122.99 4.485 122.99 4.485 124 6 C79.78 6 35.56 6 -10 6 C-4 0 -4 0 0 0 Z " fill="#C8E8F8" transform="translate(456,353)"/>
<path d="M0 0 C6.76593737 5.70461386 6.76593737 5.70461386 9.03515625 8.56835938 C13.15298771 11.94563221 16.27997954 11.73040563 21.45703125 11.70703125 C22.81147591 11.72971321 22.81147591 11.72971321 24.19328308 11.75285339 C27.06660979 11.79571149 29.93888558 11.80456649 32.8125 11.8125 C34.76500186 11.8356458 36.71747876 11.86101131 38.66992188 11.88867188 C43.44670741 11.95150558 48.22283772 11.98385559 53 12 C53 12.33 53 12.66 53 13 C35.84 13 18.68 13 1 13 C0.67 8.71 0.34 4.42 0 0 Z " fill="#648DA6" transform="translate(581,289)"/>
<path d="M0 0 C32.34 0 64.68 0 98 0 C98 0.33 98 0.66 98 1 C53.45 1.495 53.45 1.495 8 2 C7.67 3.65 7.34 5.3 7 7 C5.2925002 5.71937515 3.62626404 4.38232443 2 3 C2 2.34 2 1.68 2 1 C1.34 0.67 0.68 0.34 0 0 Z " fill="#1E4D6D" transform="translate(488,610)"/>
<path d="M0 0 C0.33 0.99 0.66 1.98 1 3 C0.34 3 -0.32 3 -1 3 C-1 3.66 -1 4.32 -1 5 C-1.99 5.495 -1.99 5.495 -3 6 C-3.18755859 6.90492188 -3.18755859 6.90492188 -3.37890625 7.828125 C-4.20947413 10.73250074 -5.65098829 11.81494126 -7.9375 13.75 C-8.64777344 14.36359375 -9.35804688 14.9771875 -10.08984375 15.609375 C-12 17 -12 17 -14 17 C-14.226875 17.928125 -14.45375 18.85625 -14.6875 19.8125 C-16.23920182 23.5809187 -17.28854237 24.44636657 -21 26 C-23.8125 26.1875 -23.8125 26.1875 -26 26 C-23.80029775 22.97540941 -21.46679158 20.46521649 -18.625 18.0625 C-12.03756085 12.45190544 -6.07524422 6.15203804 0 0 Z " fill="#94CAE5" transform="translate(544,545)"/>
<path d="M0 0 C0.99 0.33 1.98 0.66 3 1 C3 1.66 3 2.32 3 3 C3.84304688 3.36738281 3.84304688 3.36738281 4.703125 3.7421875 C7.41865854 5.22926539 9.46391438 7.04062782 11.75 9.125 C12.94882812 10.21167969 12.94882812 10.21167969 14.171875 11.3203125 C14.77515625 11.87460937 15.3784375 12.42890625 16 13 C15.01 13.495 15.01 13.495 14 14 C14.66 14.33 15.32 14.66 16 15 C16 15.99 16 16.98 16 18 C15.01 18.33 14.02 18.66 13 19 C11.38930269 16.96320828 9.78646883 14.92096847 8.1875 12.875 C7.50977539 12.02035156 7.50977539 12.02035156 6.81835938 11.1484375 C4.05620914 7.59998172 1.88236519 4.11493785 0 0 Z " fill="#396D94" transform="translate(347,737)"/>
<path d="M0 0 C2 0 2 0 3.625 1.375 C5 3 5 3 5 5 C5.66 5 6.32 5 7 5 C7 6.32 7 7.64 7 9 C7.8971875 9.433125 7.8971875 9.433125 8.8125 9.875 C13.42634978 12.24783703 15.97540918 14.88319582 19 19 C18.67 19.99 18.34 20.98 18 22 C11.73 15.73 5.46 9.46 -1 3 C-0.67 2.01 -0.34 1.02 0 0 Z " fill="#4C82A4" transform="translate(473,873)"/>
<path d="M0 0 C21.12 0 42.24 0 64 0 C63.01 0.99 62.02 1.98 61 3 C60.505 2.505 60.505 2.505 60 2 C58.12903889 1.87655973 56.25349072 1.82207606 54.37866211 1.79467773 C53.17749252 1.77473251 51.97632294 1.75478729 50.73875427 1.73423767 C49.4314888 1.71752518 48.12422333 1.70081268 46.77734375 1.68359375 C45.43355153 1.66303042 44.08976588 1.64203412 42.74598694 1.62062073 C39.20325013 1.56533581 35.66045433 1.51595502 32.11761475 1.46777344 C28.5047885 1.41760513 24.89204828 1.36189475 21.27929688 1.30664062 C14.18627253 1.19898063 7.09317112 1.0975532 0 1 C0 0.67 0 0.34 0 0 Z " fill="#E9FEFE" transform="translate(500,465)"/>
<path d="M0 0 C0.66 0 1.32 0 2 0 C6.04770017 13.32367973 6.04770017 13.32367973 4.51953125 20.14453125 C3.81404583 24.02204888 3.63853133 27.88085443 3.4375 31.8125 C3.39431641 32.60076172 3.35113281 33.38902344 3.30664062 34.20117188 C3.20121679 36.13394215 3.10016906 38.06695026 3 40 C2.67 40 2.34 40 2 40 C1.97494385 38.96593018 1.9498877 37.93186035 1.92407227 36.86645508 C1.8296657 33.01786613 1.72952709 29.16944371 1.62768555 25.32104492 C1.58446216 23.65767319 1.54277854 21.99426068 1.50268555 20.33081055 C1.44467668 17.93525932 1.38107171 15.53991092 1.31640625 13.14453125 C1.29969376 12.4047554 1.28298126 11.66497955 1.26576233 10.90278625 C1.1592724 7.16354068 0.87812248 3.64061456 0 0 Z " fill="#557281" transform="translate(554,292)"/>
<path d="M0 0 C0.33 0.99 0.66 1.98 1 3 C9.25 3.33 17.5 3.66 26 4 C26 4.33 26 4.66 26 5 C14.12 5.33 2.24 5.66 -10 6 C-4 0 -4 0 0 0 Z " fill="#D0EEFD" transform="translate(456,353)"/>
<path d="M0 0 C-1.93173103 1.93173103 -5.39155594 1.63390259 -8 2 C-8.99 2.495 -8.99 2.495 -10 3 C-10.84820313 2.85691406 -11.69640625 2.71382812 -12.5703125 2.56640625 C-16.71507135 1.88190735 -20.6850231 1.89133924 -24.875 1.9375 C-26.050625 1.94426758 -26.050625 1.94426758 -27.25 1.95117188 C-29.16670014 1.96285907 -31.08336048 1.98079092 -33 2 C-33 1.67 -33 1.34 -33 1 C-28.62221249 0.68968832 -24.24399825 0.38671278 -19.86523438 0.09057617 C-18.37518574 -0.01123949 -16.88527346 -0.11507145 -15.39550781 -0.22094727 C-13.25618469 -0.37263695 -11.11647864 -0.51710835 -8.9765625 -0.66015625 C-7.68830566 -0.74918213 -6.40004883 -0.83820801 -5.07275391 -0.92993164 C-2 -1 -2 -1 0 0 Z " fill="#346487" transform="translate(642,761)"/>
<path d="M0 0 C0.33 0.99 0.66 1.98 1 3 C0.01 3.8971875 0.01 3.8971875 -1 4.8125 C-3.3373846 6.87501834 -3.3373846 6.87501834 -3 10 C-3.62599617 11.68236471 -4.28752268 13.3523962 -5 15 C-5.99 15 -6.98 15 -8 15 C-9 11.9375 -9 11.9375 -9 8 C-6.65664205 5.22611815 -3.91707853 3.14241867 -1 1 C-0.67 0.67 -0.34 0.34 0 0 Z " fill="#3B7293" transform="translate(679,737)"/>
<path d="M0 0 C1.175625 0.01353516 1.175625 0.01353516 2.375 0.02734375 C4.29180055 0.05071937 6.20844191 0.08658347 8.125 0.125 C8.125 0.455 8.125 0.785 8.125 1.125 C7.05572266 1.21587891 7.05572266 1.21587891 5.96484375 1.30859375 C-3.20786779 1.67042123 -3.20786779 1.67042123 -11.875 4.125 C-12.865 3.465 -13.855 2.805 -14.875 2.125 C-9.76263219 0.05065268 -5.41169107 -0.11924065 0 0 Z " fill="#496C83" transform="translate(508.875,235.875)"/>
<path d="M0 0 C0.67578125 1.77734375 0.67578125 1.77734375 1 4 C-0.14453125 5.81640625 -0.14453125 5.81640625 -1.8125 7.5625 C-3.79988365 9.68206119 -5.37153504 11.55730256 -7 14 C-7.66 14 -8.32 14 -9 14 C-7.65070536 10.16336928 -5.92248975 7.34827431 -3.375 4.1875 C-2.42753906 3.00220703 -2.42753906 3.00220703 -1.4609375 1.79296875 C-0.97882813 1.20128906 -0.49671875 0.60960937 0 0 Z " fill="#43667F" transform="translate(462,258)"/>
<path d="M0 0 C0.33 0 0.66 0 1 0 C1.04898438 0.60328125 1.09796875 1.2065625 1.1484375 1.828125 C1.22320313 2.62734375 1.29796875 3.4265625 1.375 4.25 C1.44460938 5.03890625 1.51421875 5.8278125 1.5859375 6.640625 C2.01507113 9.085877 2.78600638 10.84836903 4 13 C3.01 13.495 3.01 13.495 2 14 C2.33 15.32 2.66 16.64 3 18 C2.34 18 1.68 18 1 18 C0.67 18.99 0.34 19.98 0 21 C0 14.07 0 7.14 0 0 Z " fill="#2B4E63" transform="translate(557,315)"/>
<path d="M0 0 C0.66 0.66 1.32 1.32 2 2 C-0.625 6.875 -0.625 6.875 -4 8 C-4 7.34 -4 6.68 -4 6 C-5.98 6.99 -5.98 6.99 -8 8 C-8 7.34 -8 6.68 -8 6 C-8.66 5.67 -9.32 5.34 -10 5 C-9.16855469 4.70996094 -9.16855469 4.70996094 -8.3203125 4.4140625 C-7.59585937 4.15367187 -6.87140625 3.89328125 -6.125 3.625 C-5.04605469 3.24214844 -5.04605469 3.24214844 -3.9453125 2.8515625 C-1.81842006 2.06122217 -1.81842006 2.06122217 0 0 Z " fill="#99CCE5" transform="translate(504,584)"/>
<path d="M0 0 C0 4.62 0 9.24 0 14 C-0.33 14 -0.66 14 -1 14 C-1.33 11.36 -1.66 8.72 -2 6 C-2.99 6.66 -3.98 7.32 -5 8 C-5.99 7.67 -6.98 7.34 -8 7 C-6.8572081 5.83035398 -5.71068285 4.66435444 -4.5625 3.5 C-3.92441406 2.8503125 -3.28632812 2.200625 -2.62890625 1.53125 C-1 0 -1 0 0 0 Z " fill="#A1D3EC" transform="translate(587,503)"/>
<path d="M0 0 C9.57 0 19.14 0 29 0 C28.67 0.99 28.34 1.98 28 3 C27.34 3 26.68 3 26 3 C26 2.34 26 1.68 26 1 C17.42 1 8.84 1 0 1 C0 0.67 0 0.34 0 0 Z " fill="#D2E6F0" transform="translate(405,337)"/>
<path d="M0 0 C1.32 0 2.64 0 4 0 C4 0.66 4 1.32 4 2 C4.61875 2.061875 5.2375 2.12375 5.875 2.1875 C6.57625 2.455625 7.2775 2.72375 8 3 C8.70211894 4.65204456 9.36971413 6.31923769 10 8 C10.99 8.33 11.98 8.66 13 9 C12.67 9.66 12.34 10.32 12 11 C11.34 11 10.68 11 10 11 C8.14000715 9.0324413 6.46609802 6.94444402 4.75390625 4.84765625 C3.03994919 2.75201831 3.03994919 2.75201831 0 2 C0 1.34 0 0.68 0 0 Z " fill="#8EC4D9" transform="translate(974,618)"/>
<path d="M0 0 C0.53109375 0.31710937 1.0621875 0.63421875 1.609375 0.9609375 C4.54535848 2.2370349 7.06174329 2.41707021 10.25 2.625 C11.32765625 2.69976563 12.4053125 2.77453125 13.515625 2.8515625 C14.33546875 2.90054688 15.1553125 2.94953125 16 3 C14 5 14 5 11.79296875 5.265625 C3.15087187 5.21379833 3.15087187 5.21379833 -1 3 C-0.67 2.01 -0.34 1.02 0 0 Z " fill="#1E4763" transform="translate(480,585)"/>
<path d="M0 0 C1.12894876 0.93274109 2.25300876 1.87140122 3.375 2.8125 C4.00148438 3.33457031 4.62796875 3.85664062 5.2734375 4.39453125 C7 6 7 6 9 9 C8.01 9.33 7.02 9.66 6 10 C5.938125 9.071875 5.938125 9.071875 5.875 8.125 C5.58625 7.42375 5.2975 6.7225 5 6 C3.01276732 5.29618843 1.01222047 4.6288189 -1 4 C-1.33 3.01 -1.66 2.02 -2 1 C-1.34 0.67 -0.68 0.34 0 0 Z " fill="#67A4C2" transform="translate(890,532)"/>
<path d="M0 0 C3.34708051 1.54841575 6.24667512 3.49105864 9.25 5.625 C10.14203125 6.25664062 11.0340625 6.88828125 11.953125 7.5390625 C12.96632813 8.26222656 12.96632813 8.26222656 14 9 C13.01 10.485 13.01 10.485 12 12 C9.99698881 10.19073245 7.99751914 8.377813 6 6.5625 C5.42765625 6.04623047 4.8553125 5.52996094 4.265625 4.99804688 C2.82480421 3.6858708 1.41014216 2.34509096 0 1 C0 0.67 0 0.34 0 0 Z " fill="#6A97B3" transform="translate(669,315)"/>
<path d="M0 0 C2.4375 0.75 2.4375 0.75 5 2 C5.875 4 5.875 4 6 6 C5.67 6.66 5.34 7.32 5 8 C2 7 2 7 0.25 4.5625 C-0.1625 3.716875 -0.575 2.87125 -1 2 C-0.67 1.34 -0.34 0.68 0 0 Z " fill="#5C8FAE" transform="translate(682,325)"/>
<path d="M0 0 C0.66 0.99 1.32 1.98 2 3 C1.2575 3.4125 0.515 3.825 -0.25 4.25 C-2.90171685 5.93745618 -4.86674014 7.70872089 -7 10 C-7.99 9.67 -8.98 9.34 -10 9 C-8.71142987 7.68445979 -7.41904109 6.37265903 -6.125 5.0625 C-5.04605469 3.96615234 -5.04605469 3.96615234 -3.9453125 2.84765625 C-2 1 -2 1 0 0 Z " fill="#385C72" transform="translate(358,316)"/>
<path d="M0 0 C0.33 0 0.66 0 1 0 C2.33257403 13.6332574 2.33257403 13.6332574 1 20 C1.66 20 2.32 20 3 20 C2.34 21.32 1.68 22.64 1 24 C0.67 24 0.34 24 0 24 C0 16.08 0 8.16 0 0 Z " fill="#4F81A2" transform="translate(414,472)"/>
<path d="M0 0 C0.33 1.32 0.66 2.64 1 4 C-2.63 4.66 -6.26 5.32 -10 6 C-4.4 0 -4.4 0 0 0 Z " fill="#DCEFF6" transform="translate(456,353)"/>
<path d="M0 0 C-1.15093722 3.45281166 -2.3205993 4.38082163 -5.0625 6.6875 C-5.79597656 7.31011719 -6.52945312 7.93273437 -7.28515625 8.57421875 C-7.85105469 9.04472656 -8.41695313 9.51523437 -9 10 C-9.66 9.67 -10.32 9.34 -11 9 C-3.8 0 -3.8 0 0 0 Z " fill="#6290A7" transform="translate(430,444)"/>
<path d="M0 0 C1.875 0.1875 1.875 0.1875 4 1 C5.25 3.5625 5.25 3.5625 6 6 C6.66 6 7.32 6 8 6 C8 6.66 8 7.32 8 8 C8.66 8.33 9.32 8.66 10 9 C7 9 7 9 5.17578125 7.5390625 C4.56089844 6.90742187 3.94601562 6.27578125 3.3125 5.625 C2.68988281 4.99851562 2.06726563 4.37203125 1.42578125 3.7265625 C0 2 0 2 0 0 Z " fill="#4A809D" transform="translate(463,864)"/>
<path d="M0 0 C0.33 1.32 0.66 2.64 1 4 C0.01 4.33 -0.98 4.66 -2 5 C-3.20882096 7.00016466 -3.20882096 7.00016466 -4 9 C-4.99 8.34 -5.98 7.68 -7 7 C-4.69 4.69 -2.38 2.38 0 0 Z " fill="#8FC1DB" transform="translate(512,576)"/>
<path d="M0 0 C4.08691793 0.90820398 5.61817132 1.4087814 7.9375 5 C8.288125 5.99 8.63875 6.98 9 8 C8.67 8.66 8.34 9.32 8 10 C6.66070495 8.71451591 5.32871357 7.42141845 4 6.125 C2.88625 5.04605469 2.88625 5.04605469 1.75 3.9453125 C0 2 0 2 0 0 Z " fill="#C6EDFB" transform="translate(583,289)"/>
<path d="M0 0 C1.32 0 2.64 0 4 0 C4.6875 1.8125 4.6875 1.8125 5 4 C3.5625 5.75 3.5625 5.75 2 7 C0.4375 5.1875 0.4375 5.1875 -1 3 C-0.67 2.01 -0.34 1.02 0 0 Z " fill="#5390B1" transform="translate(755,764)"/>
<path d="M0 0 C0.99 0.33 1.98 0.66 3 1 C3 1.66 3 2.32 3 3 C3.639375 3.28875 4.27875 3.5775 4.9375 3.875 C7 5 7 5 8 7 C7.01 8.485 7.01 8.485 6 10 C4.99723227 8.52270825 3.99785546 7.04311423 3 5.5625 C2.443125 4.73878906 1.88625 3.91507813 1.3125 3.06640625 C0 1 0 1 0 0 Z " fill="#396A8B" transform="translate(347,737)"/>
<path d="M0 0 C0.66 0.33 1.32 0.66 2 1 C1.36191406 1.55429687 0.72382813 2.10859375 0.06640625 2.6796875 C-0.75988281 3.40414063 -1.58617187 4.12859375 -2.4375 4.875 C-3.26121094 5.59429687 -4.08492188 6.31359375 -4.93359375 7.0546875 C-7.05982155 8.83238745 -7.05982155 8.83238745 -8 11 C-8.66 11 -9.32 11 -10 11 C-8.55218207 7.55571735 -6.72305391 5.63869038 -3.875 3.25 C-3.15054687 2.63640625 -2.42609375 2.0228125 -1.6796875 1.390625 C-0.84824219 0.70226562 -0.84824219 0.70226562 0 0 Z " fill="#DEECF1" transform="translate(387,344)"/>
<path d="M0 0 C2 1 2 1 2.875 2.875 C4.19480413 5.36796335 5.67721672 6.45147781 8 8 C7.67 8.99 7.34 9.98 7 11 C5.82141137 9.9296491 4.6574639 8.84316035 3.5 7.75 C2.8503125 7.14671875 2.200625 6.5434375 1.53125 5.921875 C0 4 0 4 0 0 Z " fill="#4A7B9B" transform="translate(397,792)"/>
<path d="M0 0 C0.33 1.32 0.66 2.64 1 4 C-1.31 5.65 -3.62 7.3 -6 9 C-6.66 8.67 -7.32 8.34 -8 8 C-5.36 5.36 -2.72 2.72 0 0 Z " fill="#294860" transform="translate(543,486)"/>
<path d="M0 0 C0.99 0.33 1.98 0.66 3 1 C0.6875 3.5 0.6875 3.5 -2 6 C-2.99 6 -3.98 6 -5 6 C-3.63016497 2.83884224 -3.0109362 2.0072908 0 0 Z " fill="#355F7D" transform="translate(420,670)"/>
<path d="M0 0 C0.33 1.32 0.66 2.64 1 4 C-1.3125 6.0625 -1.3125 6.0625 -4 8 C-4.99 7.67 -5.98 7.34 -7 7 C-4.69 4.69 -2.38 2.38 0 0 Z " fill="#284A5F" transform="translate(551,478)"/>
<path d="M0 0 C1.65 0.99 3.3 1.98 5 3 C4.01 5.31 3.02 7.62 2 10 C1.67 10 1.34 10 1 10 C0.67 6.7 0.34 3.4 0 0 Z " fill="#BDE9F8" transform="translate(620,457)"/>
<path d="M0 0 C0 3 0 3 -1.6875 5.0625 C-4.06073778 7.05088841 -6.08060173 8.02686724 -9 9 C-8.06725891 7.87105124 -7.12859878 6.74699124 -6.1875 5.625 C-5.66542969 4.99851563 -5.14335937 4.37203125 -4.60546875 3.7265625 C-3 2 -3 2 0 0 Z " fill="#40647C" transform="translate(472,249)"/>
<path d="M0 0 C0 0.66 0 1.32 0 2 C-1.65 2.66 -3.3 3.32 -5 4 C-5.66 2.68 -6.32 1.36 -7 0 C-4.3333581 -1.33332095 -2.83319697 -0.67102033 0 0 Z " fill="#427699" transform="translate(424,815)"/>
<path d="M0 0 C4.75 1.875 4.75 1.875 7 3 C7.33 3.99 7.66 4.98 8 6 C8.66 6.66 9.32 7.32 10 8 C7 8 7 8 5.17578125 6.50390625 C4.56089844 5.86324219 3.94601562 5.22257813 3.3125 4.5625 C2.68988281 3.92441406 2.06726563 3.28632812 1.42578125 2.62890625 C0 1 0 1 0 0 Z " fill="#A5D4E7" transform="translate(456,577)"/>
<path d="M0 0 C1.14926266 0.95421808 2.29430541 1.91352045 3.4375 2.875 C4.07558594 3.40867187 4.71367187 3.94234375 5.37109375 4.4921875 C7 6 7 6 8 8 C5.6875 7.8125 5.6875 7.8125 3 7 C0 2.96551724 0 2.96551724 0 0 Z " fill="#A0CEE3" transform="translate(450,852)"/>
<path d="M0 0 C2.375 0.1875 2.375 0.1875 5 1 C6.25 3.4375 6.25 3.4375 7 6 C7.33 6.66 7.66 7.32 8 8 C6.68 8 5.36 8 4 8 C3.67 6.02 3.34 4.04 3 2 C2.01 1.67 1.02 1.34 0 1 C0 0.67 0 0.34 0 0 Z " fill="#8FC3DB" transform="translate(1004,647)"/>
<path d="M0 0 C6.75 0.75 6.75 0.75 9 3 C7.02 3.33 5.04 3.66 3 4 C2.67 3.34 2.34 2.68 2 2 C1.01 2 0.02 2 -1 2 C-0.67 1.34 -0.34 0.68 0 0 Z " fill="#6690AA" transform="translate(585,438)"/>
<path d="M0 0 C2.96404505 2.80804268 5.44499019 5.18315774 7 9 C6.34 9.66 5.68 10.32 5 11 C4.67 9.68 4.34 8.36 4 7 C3.34 7 2.68 7 2 7 C1.34 4.69 0.68 2.38 0 0 Z " fill="#3C566C" transform="translate(604,349)"/>
<path d="M0 0 C-1.32 0.33 -2.64 0.66 -4 1 C-4 2.32 -4 3.64 -4 5 C-4.66 5 -5.32 5 -6 5 C-6.33 4.34 -6.66 3.68 -7 3 C-9.01669827 1.86649466 -9.01669827 1.86649466 -11 1 C-7.26562152 0.12132271 -3.83225427 -0.08912219 0 0 Z " fill="#0E324F" transform="translate(627,722)"/>
<path d="M0 0 C1.2065625 0.0309375 1.2065625 0.0309375 2.4375 0.0625 C2.1075 2.0425 1.7775 4.0225 1.4375 6.0625 C-0.2125 4.4125 -1.8625 2.7625 -3.5625 1.0625 C-2.5625 0.0625 -2.5625 0.0625 0 0 Z " fill="#204E71" transform="translate(493.5625,610.9375)"/>
<path d="M0 0 C0.0825 0.5775 0.165 1.155 0.25 1.75 C1.20531013 4.6159304 2.78469173 5.9990764 5 8 C2 8 2 8 -0.1875 6 C-0.785625 5.34 -1.38375 4.68 -2 4 C-1.34 2.68 -0.68 1.36 0 0 Z " fill="#46799D" transform="translate(426,820)"/>
<path d="M0 0 C0.99 0.495 0.99 0.495 2 1 C1.01 1.495 1.01 1.495 0 2 C0 1.34 0 0.68 0 0 Z M-2 2 C-1.01 2.495 -1.01 2.495 0 3 C-0.99 3.495 -0.99 3.495 -2 4 C-2 3.34 -2 2.68 -2 2 Z M-5 4 C-4.01 4 -3.02 4 -2 4 C-2 4.66 -2 5.32 -2 6 C-4.5 7.625 -4.5 7.625 -7 9 C-7 6 -7 6 -5 4 Z " fill="#3E759B" transform="translate(656,774)"/>
<path d="M0 0 C3.25543229 0.34879632 4.01873107 1.02133261 6.25 3.5625 C6.8275 4.366875 7.405 5.17125 8 6 C4.21032475 5.45861782 2.48587161 3.84099612 0 1 C0 0.67 0 0.34 0 0 Z " fill="#65A1BC" transform="translate(880,524)"/>
<path d="M0 0 C-1.39332574 3.36720387 -2.9789286 4.9859524 -6 7 C-6.66 6.67 -7.32 6.34 -8 6 C-7.0479279 4.99403703 -6.08812654 3.99538437 -5.125 3 C-4.59132813 2.443125 -4.05765625 1.88625 -3.5078125 1.3125 C-2 0 -2 0 0 0 Z " fill="#25475E" transform="translate(533,498)"/>
<path d="M0 0 C2.8992226 0.46761655 3.86675182 0.86675182 6 3 C6 3.99 6 4.98 6 6 C5.01 6 4.02 6 3 6 C3 4.68 3 3.36 3 2 C1.68 1.67 0.36 1.34 -1 1 C-0.67 0.67 -0.34 0.34 0 0 Z " fill="#5790AF" transform="translate(794,437)"/>
<path d="M0 0 C0.33 0.99 0.66 1.98 1 3 C1.66 3 2.32 3 3 3 C3.33 2.01 3.66 1.02 4 0 C4.66 0.66 5.32 1.32 6 2 C5.34 2 4.68 2 4 2 C3.67 3.32 3.34 4.64 3 6 C1.68 5.01 0.36 4.02 -1 3 C-0.67 2.01 -0.34 1.02 0 0 Z " fill="#558EB0" transform="translate(529,932)"/>
<path d="M0 0 C1.32 0.66 2.64 1.32 4 2 C2.68 2.99 1.36 3.98 0 5 C-0.99 4.01 -1.98 3.02 -3 2 C-2.01 1.34 -1.02 0.68 0 0 Z " fill="#4B85A8" transform="translate(704,779)"/>
<path d="M0 0 C2.625 -0.1875 2.625 -0.1875 5 0 C3.35 1.65 1.7 3.3 0 5 C-0.66 4.34 -1.32 3.68 -2 3 C-1.34 2.01 -0.68 1.02 0 0 Z " fill="#47637D" transform="translate(483,272)"/>
<path d="M0 0 C-2.67478244 1.6627026 -4.9995144 2.99983813 -8 4 C-8.66 3.34 -9.32 2.68 -10 2 C-8.71211992 1.46987262 -7.41953322 0.9511671 -6.125 0.4375 C-5.40570313 0.14746094 -4.68640625 -0.14257812 -3.9453125 -0.44140625 C-2 -1 -2 -1 0 0 Z " fill="#406379" transform="translate(493,240)"/>
<path d="M0 0 C0.33 0.66 0.66 1.32 1 2 C0.06553465 4.03144641 -0.93224776 6.03533587 -2 8 C-2.99 7.67 -3.98 7.34 -5 7 C-3.35 4.69 -1.7 2.38 0 0 Z " fill="#487D9E" transform="translate(686,728)"/>
<path d="M0 0 C1.1725131 0.95117134 2.33787015 1.91117009 3.5 2.875 C4.47453125 3.67550781 4.47453125 3.67550781 5.46875 4.4921875 C5.9740625 4.98976563 6.479375 5.48734375 7 6 C7 6.66 7 7.32 7 8 C6.01 8 5.02 8 4 8 C2.15473038 5.37403939 1.01624151 3.04872454 0 0 Z " fill="#CBEAF7" transform="translate(640,476)"/>
<path d="M0 0 C0.66 0.33 1.32 0.66 2 1 C1.34 2.98 0.68 4.96 0 7 C-0.66 6.67 -1.32 6.34 -2 6 C-1.125 1.125 -1.125 1.125 0 0 Z " fill="#2E4762" transform="translate(611,384)"/>
<path d="M0 0 C0.99 0.33 1.98 0.66 3 1 C1.7260411 3.03833424 0.38938077 5.03852126 -1 7 C-1.66 7 -2.32 7 -3 7 C-1.125 1.125 -1.125 1.125 0 0 Z " fill="#476981" transform="translate(494,295)"/>
<path d="M0 0 C5.75 1.75 5.75 1.75 8 4 C5.66666667 4 3.33333333 4 1 4 C0.67 2.68 0.34 1.36 0 0 Z " fill="#43647D" transform="translate(535,239)"/>
</svg>
